<mxfile host="Electron" modified="2023-04-12T18:36:06.422Z" agent="Mozilla/5.0 (Windows NT 10.0; Win64; x64) AppleWebKit/537.36 (KHTML, like Gecko) draw.io/21.1.2 Chrome/106.0.5249.199 Electron/21.4.3 Safari/537.36" etag="nQek-gA4wWZjMSPAiuat" version="21.1.2" type="device" pages="3">
  <diagram name="FrameworkFigure" id="fj6JEE7aAOzdSKQT0K79">
    <mxGraphModel dx="1434" dy="956" grid="1" gridSize="10" guides="1" tooltips="1" connect="1" arrows="1" fold="1" page="1" pageScale="1" pageWidth="850" pageHeight="1100" math="0" shadow="0">
      <root>
        <mxCell id="W6mTXaQ9IeUOfq4sN8dO-0" />
        <mxCell id="W6mTXaQ9IeUOfq4sN8dO-1" parent="W6mTXaQ9IeUOfq4sN8dO-0" />
        <mxCell id="tTmsiW77X0-dghV55GXU-0" value="" style="rounded=0;whiteSpace=wrap;html=1;verticalAlign=top;align=center;strokeColor=none;" parent="W6mTXaQ9IeUOfq4sN8dO-1" vertex="1">
          <mxGeometry y="170" width="850" height="560" as="geometry" />
        </mxCell>
        <mxCell id="W6mTXaQ9IeUOfq4sN8dO-3" value="demand characteristics" style="rounded=1;whiteSpace=wrap;html=1;strokeColor=#AFAFAF;" parent="W6mTXaQ9IeUOfq4sN8dO-1" vertex="1">
          <mxGeometry x="10" y="400" width="90" height="40" as="geometry" />
        </mxCell>
        <mxCell id="W6mTXaQ9IeUOfq4sN8dO-4" style="edgeStyle=orthogonalEdgeStyle;rounded=1;orthogonalLoop=1;jettySize=auto;html=1;exitX=1;exitY=0.5;exitDx=0;exitDy=0;entryX=0;entryY=0.5;entryDx=0;entryDy=0;strokeColor=#AFAFAF;endArrow=none;endFill=0;" parent="W6mTXaQ9IeUOfq4sN8dO-1" source="W6mTXaQ9IeUOfq4sN8dO-5" target="W6mTXaQ9IeUOfq4sN8dO-16" edge="1">
          <mxGeometry relative="1" as="geometry">
            <mxPoint x="740" y="299.83" as="targetPoint" />
          </mxGeometry>
        </mxCell>
        <mxCell id="W6mTXaQ9IeUOfq4sN8dO-5" value="nonacquiescent" style="rounded=1;whiteSpace=wrap;html=1;strokeColor=#AFAFAF;align=center;" parent="W6mTXaQ9IeUOfq4sN8dO-1" vertex="1">
          <mxGeometry x="450" y="279.83" width="110" height="40" as="geometry" />
        </mxCell>
        <mxCell id="W6mTXaQ9IeUOfq4sN8dO-6" style="edgeStyle=orthogonalEdgeStyle;rounded=1;orthogonalLoop=1;jettySize=auto;html=1;exitX=1;exitY=0.5;exitDx=0;exitDy=0;entryX=0;entryY=0.5;entryDx=0;entryDy=0;strokeColor=#AFAFAF;endArrow=none;endFill=0;" parent="W6mTXaQ9IeUOfq4sN8dO-1" source="W6mTXaQ9IeUOfq4sN8dO-8" target="W6mTXaQ9IeUOfq4sN8dO-10" edge="1">
          <mxGeometry relative="1" as="geometry" />
        </mxCell>
        <mxCell id="W6mTXaQ9IeUOfq4sN8dO-7" style="edgeStyle=orthogonalEdgeStyle;rounded=1;orthogonalLoop=1;jettySize=auto;html=1;exitX=1;exitY=0.5;exitDx=0;exitDy=0;entryX=0;entryY=0.5;entryDx=0;entryDy=0;strokeColor=#AFAFAF;endArrow=none;endFill=0;" parent="W6mTXaQ9IeUOfq4sN8dO-1" source="W6mTXaQ9IeUOfq4sN8dO-8" target="W6mTXaQ9IeUOfq4sN8dO-12" edge="1">
          <mxGeometry relative="1" as="geometry" />
        </mxCell>
        <mxCell id="W6mTXaQ9IeUOfq4sN8dO-8" value="counteracquiescent" style="rounded=1;whiteSpace=wrap;html=1;strokeColor=#AFAFAF;align=center;" parent="W6mTXaQ9IeUOfq4sN8dO-1" vertex="1">
          <mxGeometry x="450" y="399.83" width="110" height="40" as="geometry" />
        </mxCell>
        <mxCell id="W6mTXaQ9IeUOfq4sN8dO-9" style="edgeStyle=orthogonalEdgeStyle;rounded=1;orthogonalLoop=1;jettySize=auto;html=1;exitX=1;exitY=0.5;exitDx=0;exitDy=0;entryX=0;entryY=0.5;entryDx=0;entryDy=0;strokeColor=#AFAFAF;endArrow=none;endFill=0;" parent="W6mTXaQ9IeUOfq4sN8dO-1" source="W6mTXaQ9IeUOfq4sN8dO-10" target="W6mTXaQ9IeUOfq4sN8dO-13" edge="1">
          <mxGeometry relative="1" as="geometry" />
        </mxCell>
        <mxCell id="W6mTXaQ9IeUOfq4sN8dO-10" value="no opportunity" style="rounded=1;whiteSpace=wrap;html=1;strokeColor=#AFAFAF;align=center;" parent="W6mTXaQ9IeUOfq4sN8dO-1" vertex="1">
          <mxGeometry x="600" y="339.83" width="100" height="40" as="geometry" />
        </mxCell>
        <mxCell id="W6mTXaQ9IeUOfq4sN8dO-11" style="edgeStyle=orthogonalEdgeStyle;rounded=1;orthogonalLoop=1;jettySize=auto;html=1;exitX=1;exitY=0.5;exitDx=0;exitDy=0;entryX=0;entryY=0.5;entryDx=0;entryDy=0;strokeColor=#AFAFAF;endArrow=none;endFill=0;" parent="W6mTXaQ9IeUOfq4sN8dO-1" source="W6mTXaQ9IeUOfq4sN8dO-12" target="W6mTXaQ9IeUOfq4sN8dO-14" edge="1">
          <mxGeometry relative="1" as="geometry" />
        </mxCell>
        <mxCell id="W6mTXaQ9IeUOfq4sN8dO-12" value="opportunity" style="rounded=1;whiteSpace=wrap;html=1;strokeColor=#AFAFAF;align=center;" parent="W6mTXaQ9IeUOfq4sN8dO-1" vertex="1">
          <mxGeometry x="600" y="459.83" width="100" height="40" as="geometry" />
        </mxCell>
        <mxCell id="W6mTXaQ9IeUOfq4sN8dO-13" value="" style="rounded=1;whiteSpace=wrap;html=1;fontColor=#000000;spacingLeft=5;align=center;strokeColor=#AFAFAF;fontStyle=0;fontSize=17;fillColor=#F2F2F2;" parent="W6mTXaQ9IeUOfq4sN8dO-1" vertex="1">
          <mxGeometry x="740" y="339.83" width="90" height="40" as="geometry" />
        </mxCell>
        <mxCell id="W6mTXaQ9IeUOfq4sN8dO-14" value="" style="rounded=1;whiteSpace=wrap;html=1;fontColor=#000000;align=center;spacingLeft=5;strokeColor=#AFAFAF;fontStyle=0;fontSize=22;fillColor=#FDDDDA;" parent="W6mTXaQ9IeUOfq4sN8dO-1" vertex="1">
          <mxGeometry x="740" y="459.83" width="90" height="40" as="geometry" />
        </mxCell>
        <mxCell id="W6mTXaQ9IeUOfq4sN8dO-15" value="Motivation" style="text;html=1;strokeColor=none;fillColor=none;align=center;verticalAlign=middle;whiteSpace=wrap;rounded=0;perimeterSpacing=8;fontStyle=1" parent="W6mTXaQ9IeUOfq4sN8dO-1" vertex="1">
          <mxGeometry x="460" y="230" width="110" height="30" as="geometry" />
        </mxCell>
        <mxCell id="W6mTXaQ9IeUOfq4sN8dO-16" value="" style="rounded=1;whiteSpace=wrap;html=1;fontColor=#000000;spacingLeft=5;align=center;strokeColor=#AFAFAF;fontStyle=0;fontSize=17;fillColor=#F2F2F2;" parent="W6mTXaQ9IeUOfq4sN8dO-1" vertex="1">
          <mxGeometry x="740" y="279.83" width="90" height="40" as="geometry" />
        </mxCell>
        <mxCell id="W6mTXaQ9IeUOfq4sN8dO-17" style="edgeStyle=orthogonalEdgeStyle;rounded=1;orthogonalLoop=1;jettySize=auto;html=1;exitX=1;exitY=0.5;exitDx=0;exitDy=0;entryX=0;entryY=0.5;entryDx=0;entryDy=0;strokeColor=#AFAFAF;endArrow=none;endFill=0;" parent="W6mTXaQ9IeUOfq4sN8dO-1" source="W6mTXaQ9IeUOfq4sN8dO-19" target="W6mTXaQ9IeUOfq4sN8dO-21" edge="1">
          <mxGeometry relative="1" as="geometry" />
        </mxCell>
        <mxCell id="W6mTXaQ9IeUOfq4sN8dO-18" style="edgeStyle=orthogonalEdgeStyle;rounded=1;orthogonalLoop=1;jettySize=auto;html=1;exitX=1;exitY=0.5;exitDx=0;exitDy=0;entryX=0;entryY=0.5;entryDx=0;entryDy=0;strokeColor=#AFAFAF;endArrow=none;endFill=0;" parent="W6mTXaQ9IeUOfq4sN8dO-1" source="W6mTXaQ9IeUOfq4sN8dO-19" target="W6mTXaQ9IeUOfq4sN8dO-23" edge="1">
          <mxGeometry relative="1" as="geometry" />
        </mxCell>
        <mxCell id="W6mTXaQ9IeUOfq4sN8dO-19" value="acquiescent" style="rounded=1;whiteSpace=wrap;html=1;strokeColor=#AFAFAF;align=center;" parent="W6mTXaQ9IeUOfq4sN8dO-1" vertex="1">
          <mxGeometry x="450" y="579.83" width="110" height="40" as="geometry" />
        </mxCell>
        <mxCell id="W6mTXaQ9IeUOfq4sN8dO-20" style="edgeStyle=orthogonalEdgeStyle;rounded=1;orthogonalLoop=1;jettySize=auto;html=1;exitX=1;exitY=0.5;exitDx=0;exitDy=0;entryX=0;entryY=0.5;entryDx=0;entryDy=0;strokeColor=#AFAFAF;endArrow=none;endFill=0;" parent="W6mTXaQ9IeUOfq4sN8dO-1" source="W6mTXaQ9IeUOfq4sN8dO-21" target="W6mTXaQ9IeUOfq4sN8dO-24" edge="1">
          <mxGeometry relative="1" as="geometry" />
        </mxCell>
        <mxCell id="W6mTXaQ9IeUOfq4sN8dO-21" value="no opportunity" style="rounded=1;whiteSpace=wrap;html=1;strokeColor=#AFAFAF;align=center;" parent="W6mTXaQ9IeUOfq4sN8dO-1" vertex="1">
          <mxGeometry x="600" y="519.83" width="100" height="40" as="geometry" />
        </mxCell>
        <mxCell id="W6mTXaQ9IeUOfq4sN8dO-22" style="edgeStyle=orthogonalEdgeStyle;rounded=1;orthogonalLoop=1;jettySize=auto;html=1;exitX=1;exitY=0.5;exitDx=0;exitDy=0;entryX=0;entryY=0.5;entryDx=0;entryDy=0;strokeColor=#AFAFAF;endArrow=none;endFill=0;" parent="W6mTXaQ9IeUOfq4sN8dO-1" source="W6mTXaQ9IeUOfq4sN8dO-23" target="W6mTXaQ9IeUOfq4sN8dO-25" edge="1">
          <mxGeometry relative="1" as="geometry">
            <mxPoint x="675" y="649.9999999999999" as="sourcePoint" />
            <mxPoint x="715" y="649.9999999999999" as="targetPoint" />
          </mxGeometry>
        </mxCell>
        <mxCell id="W6mTXaQ9IeUOfq4sN8dO-23" value="opportunity" style="rounded=1;whiteSpace=wrap;html=1;strokeColor=#AFAFAF;align=center;" parent="W6mTXaQ9IeUOfq4sN8dO-1" vertex="1">
          <mxGeometry x="600" y="639.83" width="100" height="40" as="geometry" />
        </mxCell>
        <mxCell id="W6mTXaQ9IeUOfq4sN8dO-24" value="" style="rounded=1;whiteSpace=wrap;html=1;fontColor=#000000;spacingLeft=5;align=center;strokeColor=#AFAFAF;fontStyle=0;fontSize=17;fillColor=#F2F2F2;" parent="W6mTXaQ9IeUOfq4sN8dO-1" vertex="1">
          <mxGeometry x="740" y="519.83" width="90" height="40" as="geometry" />
        </mxCell>
        <mxCell id="W6mTXaQ9IeUOfq4sN8dO-25" value="" style="rounded=1;whiteSpace=wrap;html=1;fontColor=#000000;align=center;spacingLeft=5;strokeColor=#AFAFAF;fontStyle=0;fontSize=22;fillColor=#BFE5E2;" parent="W6mTXaQ9IeUOfq4sN8dO-1" vertex="1">
          <mxGeometry x="740" y="639.83" width="90" height="40" as="geometry" />
        </mxCell>
        <mxCell id="W6mTXaQ9IeUOfq4sN8dO-26" value="&lt;b style=&quot;border-color: var(--border-color);&quot;&gt;Placebo effect&lt;br style=&quot;border-color: var(--border-color);&quot;&gt;&lt;/b&gt;&lt;font style=&quot;font-size: 10px;&quot;&gt;Coles, Gaertner, et al., 2022&lt;/font&gt;" style="text;html=1;strokeColor=#808080;fillColor=none;align=center;verticalAlign=middle;whiteSpace=wrap;rounded=1;fontStyle=0;fontColor=#000000;dashed=1;" parent="W6mTXaQ9IeUOfq4sN8dO-1" vertex="1">
          <mxGeometry x="120" y="180" width="280" height="40" as="geometry" />
        </mxCell>
        <mxCell id="W6mTXaQ9IeUOfq4sN8dO-27" value="Opportunity" style="text;html=1;strokeColor=none;fillColor=none;align=center;verticalAlign=middle;whiteSpace=wrap;rounded=0;perimeterSpacing=8;fontStyle=1" parent="W6mTXaQ9IeUOfq4sN8dO-1" vertex="1">
          <mxGeometry x="600" y="230" width="100" height="30" as="geometry" />
        </mxCell>
        <mxCell id="W6mTXaQ9IeUOfq4sN8dO-28" value="" style="endArrow=none;html=1;rounded=1;strokeColor=#AFAFAF;fontColor=#FFFFFF;" parent="W6mTXaQ9IeUOfq4sN8dO-1" edge="1">
          <mxGeometry width="50" height="50" relative="1" as="geometry">
            <mxPoint x="600" y="260" as="sourcePoint" />
            <mxPoint x="700" y="260" as="targetPoint" />
          </mxGeometry>
        </mxCell>
        <mxCell id="W6mTXaQ9IeUOfq4sN8dO-29" value="" style="rounded=1;whiteSpace=wrap;html=1;fontColor=#000000;spacingLeft=5;align=center;strokeColor=#AFAFAF;fontStyle=0;fontSize=17;fillColor=#BFE5E2;" parent="W6mTXaQ9IeUOfq4sN8dO-1" vertex="1">
          <mxGeometry x="135" y="690.17" width="30" height="30" as="geometry" />
        </mxCell>
        <mxCell id="W6mTXaQ9IeUOfq4sN8dO-30" value="hypothesis-consistent shifts in responses" style="rounded=1;whiteSpace=wrap;html=1;strokeColor=none;align=left;fontSize=10;fillColor=none;" parent="W6mTXaQ9IeUOfq4sN8dO-1" vertex="1">
          <mxGeometry x="175" y="690.17" width="110" height="30" as="geometry" />
        </mxCell>
        <mxCell id="W6mTXaQ9IeUOfq4sN8dO-31" value="" style="rounded=1;whiteSpace=wrap;html=1;fontColor=#000000;spacingLeft=5;align=center;strokeColor=#AFAFAF;fontStyle=0;fontSize=17;fillColor=#FDDDDA;" parent="W6mTXaQ9IeUOfq4sN8dO-1" vertex="1">
          <mxGeometry x="325" y="690.17" width="30" height="30" as="geometry" />
        </mxCell>
        <mxCell id="W6mTXaQ9IeUOfq4sN8dO-32" value="hypothesis-&lt;i&gt;in&lt;/i&gt;consistent shifts in responses" style="rounded=1;whiteSpace=wrap;html=1;strokeColor=none;align=left;fontSize=10;fillColor=none;" parent="W6mTXaQ9IeUOfq4sN8dO-1" vertex="1">
          <mxGeometry x="365" y="690.17" width="110" height="30" as="geometry" />
        </mxCell>
        <mxCell id="W6mTXaQ9IeUOfq4sN8dO-33" value="" style="rounded=1;whiteSpace=wrap;html=1;fontColor=#000000;spacingLeft=5;align=center;strokeColor=#AFAFAF;fontStyle=0;fontSize=17;fillColor=#E6E6E6;" parent="W6mTXaQ9IeUOfq4sN8dO-1" vertex="1">
          <mxGeometry x="515" y="690.17" width="30" height="30" as="geometry" />
        </mxCell>
        <mxCell id="W6mTXaQ9IeUOfq4sN8dO-34" value="no shift in responses" style="rounded=1;whiteSpace=wrap;html=1;strokeColor=none;align=left;fontSize=10;fillColor=none;" parent="W6mTXaQ9IeUOfq4sN8dO-1" vertex="1">
          <mxGeometry x="555" y="690.17" width="110" height="30" as="geometry" />
        </mxCell>
        <mxCell id="W6mTXaQ9IeUOfq4sN8dO-35" value="believe" style="rounded=1;whiteSpace=wrap;html=1;strokeColor=#AFAFAF;align=center;dashed=1;" parent="W6mTXaQ9IeUOfq4sN8dO-1" vertex="1">
          <mxGeometry x="140" y="280" width="110" height="40" as="geometry" />
        </mxCell>
        <mxCell id="W6mTXaQ9IeUOfq4sN8dO-36" value="do not believe" style="rounded=1;whiteSpace=wrap;html=1;strokeColor=#AFAFAF;align=center;dashed=1;" parent="W6mTXaQ9IeUOfq4sN8dO-1" vertex="1">
          <mxGeometry x="140" y="580" width="110" height="40" as="geometry" />
        </mxCell>
        <mxCell id="W6mTXaQ9IeUOfq4sN8dO-37" style="edgeStyle=orthogonalEdgeStyle;rounded=1;orthogonalLoop=1;jettySize=auto;html=1;exitX=1;exitY=0.5;exitDx=0;exitDy=0;entryX=0;entryY=0.5;entryDx=0;entryDy=0;strokeColor=#AFAFAF;endArrow=none;endFill=0;dashed=1;" parent="W6mTXaQ9IeUOfq4sN8dO-1" source="W6mTXaQ9IeUOfq4sN8dO-3" target="W6mTXaQ9IeUOfq4sN8dO-35" edge="1">
          <mxGeometry relative="1" as="geometry">
            <mxPoint x="410" y="500" as="sourcePoint" />
            <mxPoint x="450" y="440" as="targetPoint" />
          </mxGeometry>
        </mxCell>
        <mxCell id="W6mTXaQ9IeUOfq4sN8dO-38" style="edgeStyle=orthogonalEdgeStyle;rounded=1;orthogonalLoop=1;jettySize=auto;html=1;exitX=1;exitY=0.5;exitDx=0;exitDy=0;entryX=0;entryY=0.5;entryDx=0;entryDy=0;strokeColor=#AFAFAF;endArrow=none;endFill=0;dashed=1;" parent="W6mTXaQ9IeUOfq4sN8dO-1" source="W6mTXaQ9IeUOfq4sN8dO-3" target="W6mTXaQ9IeUOfq4sN8dO-36" edge="1">
          <mxGeometry relative="1" as="geometry">
            <mxPoint x="110" y="380" as="sourcePoint" />
            <mxPoint x="150" y="300" as="targetPoint" />
          </mxGeometry>
        </mxCell>
        <mxCell id="W6mTXaQ9IeUOfq4sN8dO-39" value="" style="rounded=1;whiteSpace=wrap;html=1;fontColor=#000000;align=center;spacingLeft=5;strokeColor=#AFAFAF;fontStyle=0;fontSize=22;fillColor=#BFE5E2;dashed=1;" parent="W6mTXaQ9IeUOfq4sN8dO-1" vertex="1">
          <mxGeometry x="290" y="280" width="90" height="40" as="geometry" />
        </mxCell>
        <mxCell id="W6mTXaQ9IeUOfq4sN8dO-40" value="" style="rounded=1;whiteSpace=wrap;html=1;fontColor=#000000;align=center;spacingLeft=5;strokeColor=#AFAFAF;fontStyle=0;fontSize=22;fillColor=#FDDDDA;dashed=1;" parent="W6mTXaQ9IeUOfq4sN8dO-1" vertex="1">
          <mxGeometry x="290" y="580" width="90" height="40" as="geometry" />
        </mxCell>
        <mxCell id="W6mTXaQ9IeUOfq4sN8dO-41" style="edgeStyle=orthogonalEdgeStyle;rounded=1;orthogonalLoop=1;jettySize=auto;html=1;exitX=1;exitY=0.5;exitDx=0;exitDy=0;strokeColor=#AFAFAF;endArrow=none;endFill=0;entryX=0;entryY=0.5;entryDx=0;entryDy=0;dashed=1;" parent="W6mTXaQ9IeUOfq4sN8dO-1" source="W6mTXaQ9IeUOfq4sN8dO-35" target="W6mTXaQ9IeUOfq4sN8dO-39" edge="1">
          <mxGeometry relative="1" as="geometry">
            <mxPoint x="270" y="330" as="targetPoint" />
            <mxPoint x="550" y="310" as="sourcePoint" />
          </mxGeometry>
        </mxCell>
        <mxCell id="W6mTXaQ9IeUOfq4sN8dO-47" value="" style="endArrow=none;html=1;rounded=1;strokeColor=#AFAFAF;fontColor=#FFFFFF;entryX=0.934;entryY=0.842;entryDx=0;entryDy=0;entryPerimeter=0;" parent="W6mTXaQ9IeUOfq4sN8dO-1" edge="1">
          <mxGeometry width="50" height="50" relative="1" as="geometry">
            <mxPoint x="450" y="260.00000000000006" as="sourcePoint" />
            <mxPoint x="559.684" y="260.56199999999995" as="targetPoint" />
          </mxGeometry>
        </mxCell>
        <mxCell id="W6mTXaQ9IeUOfq4sN8dO-48" value="&lt;b&gt;Response bias&lt;br&gt;&lt;/b&gt;&lt;span style=&quot;font-size: 10px;&quot;&gt;Rosnow &amp;amp; Rosenthal, 1997&lt;/span&gt;&lt;span&gt;&lt;b&gt;&lt;br&gt;&lt;/b&gt;&lt;/span&gt;" style="text;html=1;strokeColor=#AFAFAF;fillColor=none;align=center;verticalAlign=top;whiteSpace=wrap;rounded=1;fontStyle=0;fontColor=#000000;" parent="W6mTXaQ9IeUOfq4sN8dO-1" vertex="1">
          <mxGeometry x="450" y="180" width="390" height="40" as="geometry" />
        </mxCell>
        <mxCell id="W6mTXaQ9IeUOfq4sN8dO-49" value="Belief" style="text;html=1;strokeColor=none;fillColor=none;align=center;verticalAlign=middle;whiteSpace=wrap;rounded=0;perimeterSpacing=8;fontStyle=1" parent="W6mTXaQ9IeUOfq4sN8dO-1" vertex="1">
          <mxGeometry x="140" y="230" width="110" height="30" as="geometry" />
        </mxCell>
        <mxCell id="W6mTXaQ9IeUOfq4sN8dO-50" value="" style="endArrow=none;html=1;rounded=1;strokeColor=#AFAFAF;fontColor=#FFFFFF;" parent="W6mTXaQ9IeUOfq4sN8dO-1" edge="1">
          <mxGeometry width="50" height="50" relative="1" as="geometry">
            <mxPoint x="140" y="260" as="sourcePoint" />
            <mxPoint x="250" y="260" as="targetPoint" />
          </mxGeometry>
        </mxCell>
        <mxCell id="OBYFd2zPQmpnn6hdSpxJ-1" style="edgeStyle=orthogonalEdgeStyle;rounded=1;orthogonalLoop=1;jettySize=auto;html=1;exitX=1;exitY=0.5;exitDx=0;exitDy=0;strokeColor=#AFAFAF;endArrow=none;endFill=0;entryX=0;entryY=0.5;entryDx=0;entryDy=0;" parent="W6mTXaQ9IeUOfq4sN8dO-1" source="W6mTXaQ9IeUOfq4sN8dO-3" target="W6mTXaQ9IeUOfq4sN8dO-8" edge="1">
          <mxGeometry relative="1" as="geometry">
            <mxPoint x="320" y="370" as="targetPoint" />
            <mxPoint x="280" y="370" as="sourcePoint" />
          </mxGeometry>
        </mxCell>
        <mxCell id="hRosQCICb63Phg89slky-1" style="edgeStyle=orthogonalEdgeStyle;rounded=1;orthogonalLoop=1;jettySize=auto;html=1;exitX=1;exitY=0.5;exitDx=0;exitDy=0;strokeColor=#AFAFAF;endArrow=none;endFill=0;entryX=0;entryY=0.5;entryDx=0;entryDy=0;" parent="W6mTXaQ9IeUOfq4sN8dO-1" source="W6mTXaQ9IeUOfq4sN8dO-3" target="W6mTXaQ9IeUOfq4sN8dO-5" edge="1">
          <mxGeometry relative="1" as="geometry">
            <mxPoint x="490" y="430" as="targetPoint" />
            <mxPoint x="130" y="430" as="sourcePoint" />
            <Array as="points">
              <mxPoint x="420" y="420" />
              <mxPoint x="420" y="300" />
            </Array>
          </mxGeometry>
        </mxCell>
        <mxCell id="hRosQCICb63Phg89slky-3" style="edgeStyle=orthogonalEdgeStyle;rounded=1;orthogonalLoop=1;jettySize=auto;html=1;exitX=1;exitY=0.5;exitDx=0;exitDy=0;strokeColor=#AFAFAF;endArrow=none;endFill=0;entryX=0;entryY=0.5;entryDx=0;entryDy=0;" parent="W6mTXaQ9IeUOfq4sN8dO-1" source="W6mTXaQ9IeUOfq4sN8dO-3" target="W6mTXaQ9IeUOfq4sN8dO-19" edge="1">
          <mxGeometry relative="1" as="geometry">
            <mxPoint x="500" y="440" as="targetPoint" />
            <mxPoint x="140" y="440" as="sourcePoint" />
            <Array as="points">
              <mxPoint x="420" y="420" />
              <mxPoint x="420" y="600" />
            </Array>
          </mxGeometry>
        </mxCell>
        <mxCell id="hRosQCICb63Phg89slky-4" style="edgeStyle=orthogonalEdgeStyle;rounded=1;orthogonalLoop=1;jettySize=auto;html=1;exitX=1;exitY=0.5;exitDx=0;exitDy=0;strokeColor=#AFAFAF;endArrow=none;endFill=0;dashed=1;" parent="W6mTXaQ9IeUOfq4sN8dO-1" source="W6mTXaQ9IeUOfq4sN8dO-36" edge="1">
          <mxGeometry relative="1" as="geometry">
            <mxPoint x="290" y="600" as="targetPoint" />
            <mxPoint x="260" y="310" as="sourcePoint" />
          </mxGeometry>
        </mxCell>
        <mxCell id="tTmsiW77X0-dghV55GXU-1" value="&lt;b&gt;+&lt;/b&gt;" style="text;html=1;strokeColor=#808080;fillColor=none;align=center;verticalAlign=middle;whiteSpace=wrap;rounded=1;fontStyle=0;fontColor=#000000;dashed=1;" parent="W6mTXaQ9IeUOfq4sN8dO-1" vertex="1">
          <mxGeometry x="410" y="180" width="30" height="40" as="geometry" />
        </mxCell>
      </root>
    </mxGraphModel>
  </diagram>
  <diagram name="VignetteFigure" id="zAT21sjI2VfNxCTfOIdL">
    <mxGraphModel dx="1434" dy="956" grid="1" gridSize="10" guides="1" tooltips="1" connect="1" arrows="1" fold="1" page="1" pageScale="1" pageWidth="850" pageHeight="1100" math="0" shadow="0">
      <root>
        <mxCell id="HEZQVVWsh_5-5IZxta0F-0" />
        <mxCell id="HEZQVVWsh_5-5IZxta0F-1" parent="HEZQVVWsh_5-5IZxta0F-0" />
        <mxCell id="HEZQVVWsh_5-5IZxta0F-2" value="" style="rounded=0;whiteSpace=wrap;html=1;verticalAlign=top;align=center;strokeColor=none;" parent="HEZQVVWsh_5-5IZxta0F-1" vertex="1">
          <mxGeometry x="30" y="150" width="750" height="470" as="geometry" />
        </mxCell>
        <mxCell id="RH5vbMcviN5znLqDzlZ9-2" value="&lt;i&gt;Spatial reasoning&lt;/i&gt;" style="text;whiteSpace=wrap;html=1;fillColor=#F2F2F2;fontColor=#1A1A1A;strokeColor=none;spacingLeft=5;spacingRight=2;spacing=5;align=center;rotation=-90;fontStyle=1;verticalAlign=middle;rounded=1;arcSize=18;" parent="HEZQVVWsh_5-5IZxta0F-1" vertex="1">
          <mxGeometry x="10" y="310" width="180" height="40" as="geometry" />
        </mxCell>
        <mxCell id="HEZQVVWsh_5-5IZxta0F-4" value="" style="text;whiteSpace=wrap;html=1;fillColor=#F2F2F2;fontColor=#000000;strokeColor=none;spacingLeft=5;spacingRight=2;spacing=5;align=center;rotation=-90;fontStyle=1;verticalAlign=middle;rounded=0;arcSize=17;" parent="HEZQVVWsh_5-5IZxta0F-1" vertex="1">
          <mxGeometry x="87.15" y="404.49" width="26.71" height="41.01" as="geometry" />
        </mxCell>
        <mxCell id="HEZQVVWsh_5-5IZxta0F-6" value="&lt;i&gt;Verbal reasoning&lt;/i&gt;" style="text;whiteSpace=wrap;html=1;fillColor=#F2F2F2;fontColor=#1A1A1A;strokeColor=none;spacingLeft=5;spacingRight=2;spacing=5;align=center;rotation=-90;fontStyle=1;verticalAlign=middle;rounded=1;arcSize=19;" parent="HEZQVVWsh_5-5IZxta0F-1" vertex="1">
          <mxGeometry x="10" y="490" width="180" height="40" as="geometry" />
        </mxCell>
        <mxCell id="HEZQVVWsh_5-5IZxta0F-5" value="&lt;u&gt;Negative demand&lt;/u&gt;" style="text;whiteSpace=wrap;html=1;fillColor=#F2F2F2;fontColor=#1A1A1A;strokeColor=none;spacingLeft=5;spacingRight=2;spacing=5;align=center;fontStyle=1;verticalAlign=middle;rounded=1;arcSize=18;" parent="HEZQVVWsh_5-5IZxta0F-1" vertex="1">
          <mxGeometry x="440" y="200" width="320" height="40" as="geometry" />
        </mxCell>
        <mxCell id="HEZQVVWsh_5-5IZxta0F-7" value="&lt;u&gt;Positive demand&lt;/u&gt;" style="text;whiteSpace=wrap;html=1;fillColor=#F2F2F2;strokeColor=none;spacingLeft=5;spacingRight=2;spacing=5;align=center;fontColor=#1A1A1A;fontStyle=1;verticalAlign=middle;rounded=1;arcSize=21;" parent="HEZQVVWsh_5-5IZxta0F-1" vertex="1">
          <mxGeometry x="120" y="200" width="320" height="40" as="geometry" />
        </mxCell>
        <mxCell id="HEZQVVWsh_5-5IZxta0F-8" value="&lt;u&gt;Demand characteristics condition&lt;/u&gt;" style="text;whiteSpace=wrap;html=1;fillColor=none;strokeColor=none;spacingLeft=5;spacingRight=2;spacing=5;align=center;fontColor=#1A1A1A;fontStyle=1;verticalAlign=middle;fontSize=14;" parent="HEZQVVWsh_5-5IZxta0F-1" vertex="1">
          <mxGeometry x="120" y="150" width="640" height="50" as="geometry" />
        </mxCell>
        <mxCell id="HEZQVVWsh_5-5IZxta0F-9" value="&lt;i&gt;Dependent variable&lt;/i&gt;" style="text;whiteSpace=wrap;html=1;fillColor=none;strokeColor=none;spacingLeft=5;spacingRight=2;spacing=5;align=center;fontColor=#1A1A1A;fontStyle=1;verticalAlign=middle;fontSize=14;rotation=-90;" parent="HEZQVVWsh_5-5IZxta0F-1" vertex="1">
          <mxGeometry x="-123.3" y="395.95" width="356.62" height="50" as="geometry" />
        </mxCell>
        <mxCell id="HEZQVVWsh_5-5IZxta0F-10" value="&lt;p class=&quot;MsoNormal&quot;&gt;Imagine that you are a university student completing an in-person study as a volunteer or for course credit.&lt;/p&gt;&lt;p class=&quot;MsoNormal&quot;&gt;The researcher informs you that they are interested in the &lt;u&gt;&lt;b&gt;deleterious effects&lt;/b&gt;&lt;/u&gt; of listening to Mozart on test-taking capabilities.&lt;/p&gt;&lt;p class=&quot;MsoNormal&quot;&gt;While Mozart music is played, you are then asked to complete a &lt;b style=&quot;&quot;&gt;&lt;i style=&quot;&quot;&gt;test measuring spatial reasoning&lt;/i&gt;&lt;/b&gt;, wherein you see unfolding shapes and guess the corresponding folded pattern.&lt;/p&gt;" style="text;whiteSpace=wrap;html=1;spacingLeft=10;spacingRight=10;spacing=0;strokeColor=#AFAFAF;verticalAlign=top;horizontal=1;spacingTop=0;fontColor=#333333;" parent="HEZQVVWsh_5-5IZxta0F-1" vertex="1">
          <mxGeometry x="440" y="240" width="320" height="180" as="geometry" />
        </mxCell>
        <mxCell id="HEZQVVWsh_5-5IZxta0F-12" value="&lt;p class=&quot;MsoNormal&quot;&gt;Imagine that you are a university student completing an in-person study as a volunteer or for course credit.&lt;/p&gt;&lt;p class=&quot;MsoNormal&quot;&gt;The researcher informs you that they are interested in the &lt;u&gt;&lt;b&gt;deleterious effects&lt;/b&gt; &lt;/u&gt;of listening to Mozart on test-taking capabilities.&lt;/p&gt;&lt;p class=&quot;MsoNormal&quot;&gt;While Mozart music is played, you are then asked to complete a &lt;b style=&quot;&quot;&gt;&lt;i style=&quot;&quot;&gt;test measuring verbal reasoning&lt;/i&gt;&lt;/b&gt;, wherein you are asked to fill in the first and last word of example sentences.&lt;/p&gt;" style="text;whiteSpace=wrap;html=1;spacingLeft=10;spacingRight=10;spacing=0;strokeColor=none;verticalAlign=top;horizontal=1;spacingTop=0;fontColor=#333333;" parent="HEZQVVWsh_5-5IZxta0F-1" vertex="1">
          <mxGeometry x="440" y="420" width="320" height="180" as="geometry" />
        </mxCell>
        <mxCell id="RH5vbMcviN5znLqDzlZ9-3" value="" style="text;whiteSpace=wrap;html=1;fillColor=#F2F2F2;fontColor=#000000;strokeColor=none;spacingLeft=5;spacingRight=2;spacing=5;align=center;rotation=-90;fontStyle=1;verticalAlign=middle;rounded=0;arcSize=17;" parent="HEZQVVWsh_5-5IZxta0F-1" vertex="1">
          <mxGeometry x="98.37" y="229.38" width="10" height="32.25" as="geometry" />
        </mxCell>
        <mxCell id="HEZQVVWsh_5-5IZxta0F-11" value="&lt;p class=&quot;MsoNormal&quot;&gt;Imagine that you are a university student completing an in-person study as a volunteer or for course credit.&lt;/p&gt;&lt;p class=&quot;MsoNormal&quot;&gt;The researcher informs you that they are interested in the &lt;u&gt;&lt;b&gt;beneficial effects&lt;/b&gt;&lt;/u&gt; of listening to Mozart on test-taking capabilities.&lt;/p&gt;&lt;p class=&quot;MsoNormal&quot;&gt;While Mozart music is played, you are then asked to complete a &lt;b style=&quot;&quot;&gt;&lt;i style=&quot;&quot;&gt;test measuring verbal reasoning&lt;/i&gt;&lt;/b&gt;, wherein you are asked to fill in the first and last word of example sentences.&lt;/p&gt;" style="text;whiteSpace=wrap;html=1;spacingLeft=10;spacingRight=10;spacing=0;strokeColor=#AFAFAF;verticalAlign=top;horizontal=1;spacingTop=0;fillColor=default;fontColor=#333333;" parent="HEZQVVWsh_5-5IZxta0F-1" vertex="1">
          <mxGeometry x="120" y="420" width="320" height="180" as="geometry" />
        </mxCell>
        <mxCell id="RH5vbMcviN5znLqDzlZ9-5" value="" style="text;whiteSpace=wrap;html=1;fillColor=#F2F2F2;fontColor=#000000;strokeColor=none;spacingLeft=5;spacingRight=2;spacing=5;align=center;rotation=-90;fontStyle=1;verticalAlign=middle;rounded=0;arcSize=17;" parent="HEZQVVWsh_5-5IZxta0F-1" vertex="1">
          <mxGeometry x="98.37" y="579" width="10" height="32.25" as="geometry" />
        </mxCell>
        <mxCell id="HEZQVVWsh_5-5IZxta0F-3" value="&lt;p class=&quot;MsoNormal&quot;&gt;Imagine that you are a university student completing an in-person study as a volunteer or for course credit.&lt;/p&gt;&lt;p class=&quot;MsoNormal&quot;&gt;The researcher informs you that they are interested in the &lt;b&gt;&lt;u&gt;beneficial effects&lt;/u&gt; &lt;/b&gt;of listening to Mozart on test-taking capabilities.&lt;/p&gt;&lt;p class=&quot;MsoNormal&quot;&gt;While Mozart music is played, you are then asked to complete a &lt;b style=&quot;&quot;&gt;&lt;i style=&quot;&quot;&gt;test measuring spatial reasoning&lt;/i&gt;&lt;/b&gt;, wherein you see unfolding shapes and guess the corresponding folded pattern.&lt;/p&gt;" style="text;whiteSpace=wrap;html=1;spacingLeft=10;spacingRight=10;spacing=0;strokeColor=#AFAFAF;verticalAlign=top;horizontal=1;spacingTop=0;fillColor=default;fontColor=#333333;" parent="HEZQVVWsh_5-5IZxta0F-1" vertex="1">
          <mxGeometry x="120" y="240" width="320" height="180" as="geometry" />
        </mxCell>
        <mxCell id="uLg3s1LSUtIXWb01ceHq-0" value="" style="endArrow=none;html=1;rounded=1;strokeColor=#AFAFAF;fontColor=#FFFFFF;" parent="HEZQVVWsh_5-5IZxta0F-1" edge="1">
          <mxGeometry width="50" height="50" relative="1" as="geometry">
            <mxPoint x="80" y="420" as="sourcePoint" />
            <mxPoint x="120" y="420" as="targetPoint" />
          </mxGeometry>
        </mxCell>
        <mxCell id="uLg3s1LSUtIXWb01ceHq-5" value="" style="text;whiteSpace=wrap;html=1;fillColor=#F2F2F2;fontColor=#000000;strokeColor=none;spacingLeft=5;spacingRight=2;spacing=5;align=center;rotation=-90;fontStyle=1;verticalAlign=middle;rounded=0;arcSize=17;" parent="HEZQVVWsh_5-5IZxta0F-1" vertex="1">
          <mxGeometry x="421.73" y="183.45" width="40.53" height="73" as="geometry" />
        </mxCell>
        <mxCell id="uLg3s1LSUtIXWb01ceHq-2" value="" style="endArrow=none;html=1;rounded=1;strokeColor=#AFAFAF;fontColor=#FFFFFF;exitX=0;exitY=0;exitDx=0;exitDy=0;entryX=1;entryY=0;entryDx=0;entryDy=0;" parent="HEZQVVWsh_5-5IZxta0F-1" source="HEZQVVWsh_5-5IZxta0F-5" target="HEZQVVWsh_5-5IZxta0F-3" edge="1">
          <mxGeometry width="50" height="50" relative="1" as="geometry">
            <mxPoint x="160" y="280" as="sourcePoint" />
            <mxPoint x="270" y="280" as="targetPoint" />
          </mxGeometry>
        </mxCell>
        <mxCell id="uLg3s1LSUtIXWb01ceHq-4" value="" style="text;whiteSpace=wrap;html=1;fillColor=#F2F2F2;fontColor=#000000;strokeColor=none;spacingLeft=5;spacingRight=2;spacing=5;align=center;rotation=-90;fontStyle=1;verticalAlign=middle;rounded=0;arcSize=17;" parent="HEZQVVWsh_5-5IZxta0F-1" vertex="1">
          <mxGeometry x="131" y="219" width="10" height="32.25" as="geometry" />
        </mxCell>
        <mxCell id="uLg3s1LSUtIXWb01ceHq-8" value="" style="text;whiteSpace=wrap;html=1;fillColor=#F2F2F2;fontColor=#000000;strokeColor=none;spacingLeft=5;spacingRight=2;spacing=5;align=center;rotation=-90;fontStyle=1;verticalAlign=middle;rounded=0;arcSize=17;" parent="HEZQVVWsh_5-5IZxta0F-1" vertex="1">
          <mxGeometry x="739" y="219" width="10" height="32.25" as="geometry" />
        </mxCell>
        <mxCell id="RH5vbMcviN5znLqDzlZ9-1" value="" style="endArrow=none;html=1;rounded=1;strokeColor=#AFAFAF;entryX=1;entryY=1;entryDx=0;entryDy=0;exitX=1;exitY=0;exitDx=0;exitDy=0;" parent="HEZQVVWsh_5-5IZxta0F-1" source="HEZQVVWsh_5-5IZxta0F-10" target="HEZQVVWsh_5-5IZxta0F-5" edge="1">
          <mxGeometry width="50" height="50" relative="1" as="geometry">
            <mxPoint x="120" y="240" as="sourcePoint" />
            <mxPoint x="170" y="190" as="targetPoint" />
            <Array as="points">
              <mxPoint x="760" y="600" />
              <mxPoint x="80" y="600" />
              <mxPoint x="80" y="240" />
              <mxPoint x="120" y="240" />
            </Array>
          </mxGeometry>
        </mxCell>
        <mxCell id="uLg3s1LSUtIXWb01ceHq-1" value="" style="endArrow=none;html=1;rounded=1;strokeColor=#AFAFAF;fontColor=#FFFFFF;entryX=1;entryY=1;entryDx=0;entryDy=0;" parent="HEZQVVWsh_5-5IZxta0F-1" target="HEZQVVWsh_5-5IZxta0F-5" edge="1">
          <mxGeometry width="50" height="50" relative="1" as="geometry">
            <mxPoint x="120" y="240" as="sourcePoint" />
            <mxPoint x="260" y="270" as="targetPoint" />
            <Array as="points">
              <mxPoint x="120" y="200" />
              <mxPoint x="760" y="200" />
            </Array>
          </mxGeometry>
        </mxCell>
      </root>
    </mxGraphModel>
  </diagram>
  <diagram name="ModeratorFigure" id="ueR0owkC2Ir0doiskBni">
    <mxGraphModel dx="819" dy="546" grid="1" gridSize="10" guides="1" tooltips="1" connect="1" arrows="1" fold="1" page="1" pageScale="1" pageWidth="850" pageHeight="1100" math="0" shadow="0">
      <root>
        <mxCell id="V_8Qq8RZZ0c48j0kGkGb-0" />
        <mxCell id="V_8Qq8RZZ0c48j0kGkGb-1" parent="V_8Qq8RZZ0c48j0kGkGb-0" />
        <mxCell id="rzB6C8EH04PqC8TSvOPb-165" value="" style="endArrow=none;html=1;rounded=0;fillColor=#f5f5f5;strokeColor=#666666;dashed=1;dashPattern=1 4;" parent="V_8Qq8RZZ0c48j0kGkGb-1" edge="1">
          <mxGeometry width="50" height="50" relative="1" as="geometry">
            <mxPoint x="190" y="479.58000000000004" as="sourcePoint" />
            <mxPoint x="310" y="479.58000000000004" as="targetPoint" />
          </mxGeometry>
        </mxCell>
        <mxCell id="V_8Qq8RZZ0c48j0kGkGb-2" value="" style="endArrow=none;html=1;rounded=0;fillColor=#f5f5f5;strokeColor=#666666;dashed=1;dashPattern=1 4;" parent="V_8Qq8RZZ0c48j0kGkGb-1" edge="1">
          <mxGeometry width="50" height="50" relative="1" as="geometry">
            <mxPoint x="350" y="221" as="sourcePoint" />
            <mxPoint x="470" y="221" as="targetPoint" />
          </mxGeometry>
        </mxCell>
        <mxCell id="V_8Qq8RZZ0c48j0kGkGb-7" value="&lt;font style=&quot;font-size: 5px&quot;&gt;&lt;i&gt;m&lt;/i&gt;&lt;sub&gt;p&lt;/sub&gt; = 4&lt;/font&gt;" style="rounded=0;whiteSpace=wrap;html=1;fontSize=9;fillColor=#f5f5f5;strokeColor=#666666;fontColor=#333333;" parent="V_8Qq8RZZ0c48j0kGkGb-1" vertex="1">
          <mxGeometry x="50" y="172" width="20" height="50" as="geometry" />
        </mxCell>
        <mxCell id="V_8Qq8RZZ0c48j0kGkGb-8" value="&lt;font style=&quot;font-size: 5px&quot;&gt;&lt;i&gt;m&lt;/i&gt;&lt;sub&gt;n&lt;/sub&gt; = 4&lt;/font&gt;" style="rounded=0;whiteSpace=wrap;html=1;fontSize=5;fillColor=#f5f5f5;strokeColor=#666666;fontColor=#333333;" parent="V_8Qq8RZZ0c48j0kGkGb-1" vertex="1">
          <mxGeometry x="130" y="222" width="20" height="30" as="geometry" />
        </mxCell>
        <mxCell id="V_8Qq8RZZ0c48j0kGkGb-9" value="" style="endArrow=none;html=1;rounded=0;fillColor=#f5f5f5;strokeColor=#666666;dashed=1;dashPattern=1 4;" parent="V_8Qq8RZZ0c48j0kGkGb-1" edge="1">
          <mxGeometry width="50" height="50" relative="1" as="geometry">
            <mxPoint x="40" y="222" as="sourcePoint" />
            <mxPoint x="160" y="222" as="targetPoint" />
          </mxGeometry>
        </mxCell>
        <mxCell id="V_8Qq8RZZ0c48j0kGkGb-10" value="Motivation ratings invariant &lt;br&gt;across conditions" style="text;html=1;strokeColor=#666666;fillColor=#f5f5f5;align=center;verticalAlign=middle;whiteSpace=wrap;rounded=0;fontSize=6;fontColor=#333333;" parent="V_8Qq8RZZ0c48j0kGkGb-1" vertex="1">
          <mxGeometry x="40" y="112" width="120" height="20" as="geometry" />
        </mxCell>
        <mxCell id="V_8Qq8RZZ0c48j0kGkGb-12" value="" style="endArrow=none;html=1;rounded=0;fontSize=9;fillColor=#f5f5f5;strokeColor=#4D4D4D;fontColor=#B3B3B3;" parent="V_8Qq8RZZ0c48j0kGkGb-1" edge="1">
          <mxGeometry width="50" height="50" relative="1" as="geometry">
            <mxPoint x="60" y="232" as="sourcePoint" />
            <mxPoint x="100" y="232" as="targetPoint" />
            <Array as="points">
              <mxPoint x="60" y="242" />
              <mxPoint x="100" y="242" />
            </Array>
          </mxGeometry>
        </mxCell>
        <mxCell id="V_8Qq8RZZ0c48j0kGkGb-13" value="&lt;i&gt;d&lt;/i&gt; = 4&lt;br&gt;Σ&lt;i&gt;m&lt;/i&gt;&amp;nbsp;= 4" style="edgeLabel;html=1;align=center;verticalAlign=middle;resizable=0;points=[];fontSize=6;fontColor=#4D4D4D;" parent="V_8Qq8RZZ0c48j0kGkGb-12" connectable="0" vertex="1">
          <mxGeometry x="0.1762" y="2" relative="1" as="geometry">
            <mxPoint x="-5" y="2" as="offset" />
          </mxGeometry>
        </mxCell>
        <mxCell id="V_8Qq8RZZ0c48j0kGkGb-14" value="" style="endArrow=none;html=1;rounded=0;fontSize=9;fillColor=#f5f5f5;strokeColor=#4D4D4D;entryX=0.5;entryY=1;entryDx=0;entryDy=0;fontColor=#B3B3B3;" parent="V_8Qq8RZZ0c48j0kGkGb-1" edge="1">
          <mxGeometry width="50" height="50" relative="1" as="geometry">
            <mxPoint x="100" y="262" as="sourcePoint" />
            <mxPoint x="140" y="262" as="targetPoint" />
            <Array as="points">
              <mxPoint x="100" y="272" />
              <mxPoint x="140" y="272" />
            </Array>
          </mxGeometry>
        </mxCell>
        <mxCell id="V_8Qq8RZZ0c48j0kGkGb-15" value="&lt;i&gt;d&lt;/i&gt; = 4&lt;br&gt;Σ&lt;i&gt;m&lt;/i&gt;&amp;nbsp;= 4" style="edgeLabel;html=1;align=center;verticalAlign=middle;resizable=0;points=[];fontSize=6;fontColor=#4D4D4D;" parent="V_8Qq8RZZ0c48j0kGkGb-14" connectable="0" vertex="1">
          <mxGeometry x="0.1762" y="2" relative="1" as="geometry">
            <mxPoint x="-5" y="2" as="offset" />
          </mxGeometry>
        </mxCell>
        <mxCell id="V_8Qq8RZZ0c48j0kGkGb-16" value="" style="endArrow=none;html=1;rounded=0;fontSize=9;fillColor=#f5f5f5;strokeColor=#4D4D4D;fontColor=#B3B3B3;" parent="V_8Qq8RZZ0c48j0kGkGb-1" edge="1">
          <mxGeometry width="50" height="50" relative="1" as="geometry">
            <mxPoint x="60" y="162" as="sourcePoint" />
            <mxPoint x="140" y="162" as="targetPoint" />
            <Array as="points">
              <mxPoint x="60" y="152" />
              <mxPoint x="140" y="152" />
            </Array>
          </mxGeometry>
        </mxCell>
        <mxCell id="V_8Qq8RZZ0c48j0kGkGb-17" value="&lt;i&gt;d&lt;/i&gt; = 8&lt;br&gt;Σ&lt;i&gt;m&lt;/i&gt;&amp;nbsp;= 8" style="edgeLabel;html=1;align=center;verticalAlign=middle;resizable=0;points=[];fontSize=6;fontColor=#4D4D4D;" parent="V_8Qq8RZZ0c48j0kGkGb-16" connectable="0" vertex="1">
          <mxGeometry x="0.1762" y="2" relative="1" as="geometry">
            <mxPoint x="-9" y="2" as="offset" />
          </mxGeometry>
        </mxCell>
        <mxCell id="V_8Qq8RZZ0c48j0kGkGb-18" value="mood" style="text;html=1;align=center;verticalAlign=middle;whiteSpace=wrap;rounded=0;labelBorderColor=none;fontSize=6;rotation=-90;fillColor=none;strokeColor=none;fontStyle=1" parent="V_8Qq8RZZ0c48j0kGkGb-1" vertex="1">
          <mxGeometry x="-10" y="211" width="60" height="15" as="geometry" />
        </mxCell>
        <mxCell id="V_8Qq8RZZ0c48j0kGkGb-19" style="edgeStyle=orthogonalEdgeStyle;rounded=0;orthogonalLoop=1;jettySize=auto;html=1;exitX=0.5;exitY=0;exitDx=0;exitDy=0;dashed=1;dashPattern=1 4;endArrow=none;endFill=0;" parent="V_8Qq8RZZ0c48j0kGkGb-1" edge="1">
          <mxGeometry relative="1" as="geometry">
            <mxPoint x="59.935483870967744" y="302" as="targetPoint" />
            <mxPoint x="60" y="307" as="sourcePoint" />
          </mxGeometry>
        </mxCell>
        <mxCell id="V_8Qq8RZZ0c48j0kGkGb-20" style="edgeStyle=orthogonalEdgeStyle;rounded=0;orthogonalLoop=1;jettySize=auto;html=1;exitX=0.5;exitY=0;exitDx=0;exitDy=0;endArrow=none;endFill=0;strokeColor=#666666;" parent="V_8Qq8RZZ0c48j0kGkGb-1" edge="1">
          <mxGeometry relative="1" as="geometry">
            <mxPoint x="60" y="302" as="targetPoint" />
            <mxPoint x="60" y="307" as="sourcePoint" />
          </mxGeometry>
        </mxCell>
        <mxCell id="V_8Qq8RZZ0c48j0kGkGb-21" value="positive" style="text;html=1;strokeColor=none;fillColor=none;align=left;verticalAlign=middle;whiteSpace=wrap;rounded=0;fontSize=6;spacing=0;" parent="V_8Qq8RZZ0c48j0kGkGb-1" vertex="1">
          <mxGeometry x="50" y="307" width="20" height="10" as="geometry" />
        </mxCell>
        <mxCell id="V_8Qq8RZZ0c48j0kGkGb-22" value="" style="rounded=0;whiteSpace=wrap;html=1;fontSize=9;fillColor=#f5f5f5;fontColor=#333333;strokeColor=#666666;" parent="V_8Qq8RZZ0c48j0kGkGb-1" vertex="1">
          <mxGeometry x="90" y="212" width="20" height="10" as="geometry" />
        </mxCell>
        <mxCell id="V_8Qq8RZZ0c48j0kGkGb-23" value="" style="endArrow=none;html=1;rounded=0;fillColor=#f5f5f5;strokeColor=#666666;" parent="V_8Qq8RZZ0c48j0kGkGb-1" edge="1">
          <mxGeometry width="50" height="50" relative="1" as="geometry">
            <mxPoint x="40" y="302" as="sourcePoint" />
            <mxPoint x="40" y="142" as="targetPoint" />
          </mxGeometry>
        </mxCell>
        <mxCell id="V_8Qq8RZZ0c48j0kGkGb-24" value="0" style="text;html=1;strokeColor=none;fillColor=none;align=center;verticalAlign=middle;whiteSpace=wrap;rounded=0;fontSize=6;" parent="V_8Qq8RZZ0c48j0kGkGb-1" vertex="1">
          <mxGeometry x="20" y="212" width="20" height="20" as="geometry" />
        </mxCell>
        <mxCell id="V_8Qq8RZZ0c48j0kGkGb-25" value="-10" style="text;html=1;strokeColor=none;fillColor=none;align=center;verticalAlign=middle;whiteSpace=wrap;rounded=0;fontSize=6;" parent="V_8Qq8RZZ0c48j0kGkGb-1" vertex="1">
          <mxGeometry x="20" y="292" width="20" height="20" as="geometry" />
        </mxCell>
        <mxCell id="V_8Qq8RZZ0c48j0kGkGb-26" value="" style="endArrow=none;html=1;rounded=0;fillColor=#f5f5f5;strokeColor=#666666;entryX=1;entryY=0.5;entryDx=0;entryDy=0;" parent="V_8Qq8RZZ0c48j0kGkGb-1" target="V_8Qq8RZZ0c48j0kGkGb-25" edge="1">
          <mxGeometry width="50" height="50" relative="1" as="geometry">
            <mxPoint x="160" y="302" as="sourcePoint" />
            <mxPoint x="30" y="302" as="targetPoint" />
          </mxGeometry>
        </mxCell>
        <mxCell id="V_8Qq8RZZ0c48j0kGkGb-27" value="10" style="text;html=1;strokeColor=none;fillColor=none;align=center;verticalAlign=middle;whiteSpace=wrap;rounded=0;fontSize=6;" parent="V_8Qq8RZZ0c48j0kGkGb-1" vertex="1">
          <mxGeometry x="20" y="137" width="20" height="20" as="geometry" />
        </mxCell>
        <mxCell id="V_8Qq8RZZ0c48j0kGkGb-28" style="edgeStyle=orthogonalEdgeStyle;rounded=0;orthogonalLoop=1;jettySize=auto;html=1;exitX=0.5;exitY=0;exitDx=0;exitDy=0;endArrow=none;endFill=0;strokeColor=#666666;" parent="V_8Qq8RZZ0c48j0kGkGb-1" edge="1">
          <mxGeometry relative="1" as="geometry">
            <mxPoint x="99.93548387096774" y="302" as="targetPoint" />
            <mxPoint x="100" y="307" as="sourcePoint" />
          </mxGeometry>
        </mxCell>
        <mxCell id="V_8Qq8RZZ0c48j0kGkGb-29" value="control" style="text;html=1;strokeColor=none;fillColor=none;align=left;verticalAlign=middle;whiteSpace=wrap;rounded=0;fontSize=6;spacing=0;" parent="V_8Qq8RZZ0c48j0kGkGb-1" vertex="1">
          <mxGeometry x="90" y="307" width="20" height="10" as="geometry" />
        </mxCell>
        <mxCell id="V_8Qq8RZZ0c48j0kGkGb-30" style="edgeStyle=orthogonalEdgeStyle;rounded=0;orthogonalLoop=1;jettySize=auto;html=1;exitX=0.5;exitY=0;exitDx=0;exitDy=0;endArrow=none;endFill=0;strokeColor=#666666;" parent="V_8Qq8RZZ0c48j0kGkGb-1" edge="1">
          <mxGeometry relative="1" as="geometry">
            <mxPoint x="139.93548387096774" y="302" as="targetPoint" />
            <mxPoint x="140" y="307" as="sourcePoint" />
          </mxGeometry>
        </mxCell>
        <mxCell id="V_8Qq8RZZ0c48j0kGkGb-31" value="negative" style="text;html=1;strokeColor=none;fillColor=none;align=left;verticalAlign=middle;whiteSpace=wrap;rounded=0;fontSize=6;spacing=0;" parent="V_8Qq8RZZ0c48j0kGkGb-1" vertex="1">
          <mxGeometry x="130" y="307" width="20" height="10" as="geometry" />
        </mxCell>
        <mxCell id="V_8Qq8RZZ0c48j0kGkGb-33" value="&lt;font style=&quot;font-size: 5px&quot;&gt;&lt;i&gt;b&lt;/i&gt;&lt;sub&gt;p&lt;/sub&gt; = 4&lt;/font&gt;" style="rounded=0;whiteSpace=wrap;html=1;fontSize=9;fillColor=#f5f5f5;strokeColor=#666666;fontColor=#333333;" parent="V_8Qq8RZZ0c48j0kGkGb-1" vertex="1">
          <mxGeometry x="360" y="171" width="20" height="50" as="geometry" />
        </mxCell>
        <mxCell id="V_8Qq8RZZ0c48j0kGkGb-34" value="&lt;font style=&quot;font-size: 5px&quot;&gt;&lt;i&gt;b&lt;/i&gt;&lt;sub&gt;n&lt;/sub&gt; = 4&lt;/font&gt;" style="rounded=0;whiteSpace=wrap;html=1;fontSize=5;fillColor=#f5f5f5;strokeColor=#666666;fontColor=#333333;" parent="V_8Qq8RZZ0c48j0kGkGb-1" vertex="1">
          <mxGeometry x="440" y="221" width="20" height="30" as="geometry" />
        </mxCell>
        <mxCell id="V_8Qq8RZZ0c48j0kGkGb-35" value="" style="endArrow=none;html=1;rounded=0;fontSize=9;fillColor=#f5f5f5;strokeColor=#4D4D4D;fontColor=#B3B3B3;" parent="V_8Qq8RZZ0c48j0kGkGb-1" edge="1">
          <mxGeometry width="50" height="50" relative="1" as="geometry">
            <mxPoint x="370" y="231" as="sourcePoint" />
            <mxPoint x="410" y="231" as="targetPoint" />
            <Array as="points">
              <mxPoint x="370" y="241" />
              <mxPoint x="410" y="241" />
            </Array>
          </mxGeometry>
        </mxCell>
        <mxCell id="V_8Qq8RZZ0c48j0kGkGb-36" value="&lt;i&gt;d&lt;/i&gt; = 4&lt;br&gt;Σ&lt;i&gt;b&lt;/i&gt; = 4" style="edgeLabel;html=1;align=center;verticalAlign=middle;resizable=0;points=[];fontSize=6;fontColor=#4D4D4D;" parent="V_8Qq8RZZ0c48j0kGkGb-35" connectable="0" vertex="1">
          <mxGeometry x="0.1762" y="2" relative="1" as="geometry">
            <mxPoint x="-5" y="2" as="offset" />
          </mxGeometry>
        </mxCell>
        <mxCell id="V_8Qq8RZZ0c48j0kGkGb-37" value="" style="endArrow=none;html=1;rounded=0;fontSize=9;fillColor=#f5f5f5;strokeColor=#4D4D4D;entryX=0.5;entryY=1;entryDx=0;entryDy=0;fontColor=#B3B3B3;" parent="V_8Qq8RZZ0c48j0kGkGb-1" edge="1">
          <mxGeometry width="50" height="50" relative="1" as="geometry">
            <mxPoint x="410" y="261" as="sourcePoint" />
            <mxPoint x="450" y="261" as="targetPoint" />
            <Array as="points">
              <mxPoint x="410" y="271" />
              <mxPoint x="450" y="271" />
            </Array>
          </mxGeometry>
        </mxCell>
        <mxCell id="V_8Qq8RZZ0c48j0kGkGb-38" value="&lt;i&gt;d&lt;/i&gt; = 4&lt;br&gt;Σ&lt;i&gt;b&lt;/i&gt; = 4" style="edgeLabel;html=1;align=center;verticalAlign=middle;resizable=0;points=[];fontSize=6;fontColor=#4D4D4D;" parent="V_8Qq8RZZ0c48j0kGkGb-37" connectable="0" vertex="1">
          <mxGeometry x="0.1762" y="2" relative="1" as="geometry">
            <mxPoint x="-5" y="2" as="offset" />
          </mxGeometry>
        </mxCell>
        <mxCell id="V_8Qq8RZZ0c48j0kGkGb-39" value="" style="endArrow=none;html=1;rounded=0;fontSize=9;fillColor=#f5f5f5;strokeColor=#4D4D4D;fontColor=#B3B3B3;" parent="V_8Qq8RZZ0c48j0kGkGb-1" edge="1">
          <mxGeometry width="50" height="50" relative="1" as="geometry">
            <mxPoint x="370" y="161" as="sourcePoint" />
            <mxPoint x="450" y="161" as="targetPoint" />
            <Array as="points">
              <mxPoint x="370" y="151" />
              <mxPoint x="450" y="151" />
            </Array>
          </mxGeometry>
        </mxCell>
        <mxCell id="V_8Qq8RZZ0c48j0kGkGb-40" value="&lt;i&gt;d&lt;/i&gt; = 8&lt;br&gt;Σ&lt;i&gt;b&lt;/i&gt; = 8" style="edgeLabel;html=1;align=center;verticalAlign=middle;resizable=0;points=[];fontSize=6;fontColor=#4D4D4D;" parent="V_8Qq8RZZ0c48j0kGkGb-39" connectable="0" vertex="1">
          <mxGeometry x="0.1762" y="2" relative="1" as="geometry">
            <mxPoint x="-9" y="2" as="offset" />
          </mxGeometry>
        </mxCell>
        <mxCell id="V_8Qq8RZZ0c48j0kGkGb-41" value="" style="rounded=0;whiteSpace=wrap;html=1;fontSize=9;fillColor=#f5f5f5;fontColor=#333333;strokeColor=#666666;" parent="V_8Qq8RZZ0c48j0kGkGb-1" vertex="1">
          <mxGeometry x="400" y="211" width="20" height="10" as="geometry" />
        </mxCell>
        <mxCell id="V_8Qq8RZZ0c48j0kGkGb-42" value="" style="endArrow=none;html=1;rounded=0;fillColor=#f5f5f5;strokeColor=#666666;dashed=1;dashPattern=1 4;" parent="V_8Qq8RZZ0c48j0kGkGb-1" edge="1">
          <mxGeometry width="50" height="50" relative="1" as="geometry">
            <mxPoint x="40" y="479.43000000000006" as="sourcePoint" />
            <mxPoint x="160" y="479.43000000000006" as="targetPoint" />
          </mxGeometry>
        </mxCell>
        <mxCell id="V_8Qq8RZZ0c48j0kGkGb-43" value="&lt;font style=&quot;&quot;&gt;&lt;span style=&quot;font-size: 5px;&quot;&gt;&lt;i&gt;o&lt;/i&gt;&lt;sub&gt;p&lt;/sub&gt;&lt;/span&gt;&lt;span style=&quot;font-size: 5px;&quot;&gt; = 4&lt;/span&gt;&lt;/font&gt;" style="rounded=0;whiteSpace=wrap;html=1;fontSize=9;fillColor=#f5f5f5;strokeColor=#666666;fontColor=#333333;" parent="V_8Qq8RZZ0c48j0kGkGb-1" vertex="1">
          <mxGeometry x="50" y="430" width="20" height="50" as="geometry" />
        </mxCell>
        <mxCell id="V_8Qq8RZZ0c48j0kGkGb-44" value="&lt;font style=&quot;&quot;&gt;&lt;span style=&quot;font-size: 5px;&quot;&gt;&lt;i&gt;o&lt;/i&gt;&lt;sub&gt;n&lt;/sub&gt;&lt;/span&gt; = 4&lt;/font&gt;" style="rounded=0;whiteSpace=wrap;html=1;fontSize=5;fillColor=#f5f5f5;strokeColor=#666666;fontColor=#333333;" parent="V_8Qq8RZZ0c48j0kGkGb-1" vertex="1">
          <mxGeometry x="130" y="480" width="20" height="30" as="geometry" />
        </mxCell>
        <mxCell id="V_8Qq8RZZ0c48j0kGkGb-45" value="" style="endArrow=none;html=1;rounded=0;fontSize=9;fillColor=#f5f5f5;strokeColor=#4D4D4D;fontColor=#B3B3B3;" parent="V_8Qq8RZZ0c48j0kGkGb-1" edge="1">
          <mxGeometry width="50" height="50" relative="1" as="geometry">
            <mxPoint x="60" y="490" as="sourcePoint" />
            <mxPoint x="100" y="490" as="targetPoint" />
            <Array as="points">
              <mxPoint x="60" y="500" />
              <mxPoint x="100" y="500" />
            </Array>
          </mxGeometry>
        </mxCell>
        <mxCell id="V_8Qq8RZZ0c48j0kGkGb-46" value="&lt;i&gt;d&lt;/i&gt; = 4&lt;br&gt;Σ&lt;i&gt;o&lt;/i&gt; = 4" style="edgeLabel;html=1;align=center;verticalAlign=middle;resizable=0;points=[];fontSize=6;fontColor=#4D4D4D;" parent="V_8Qq8RZZ0c48j0kGkGb-45" connectable="0" vertex="1">
          <mxGeometry x="0.1762" y="2" relative="1" as="geometry">
            <mxPoint x="-5" y="2" as="offset" />
          </mxGeometry>
        </mxCell>
        <mxCell id="V_8Qq8RZZ0c48j0kGkGb-47" value="" style="endArrow=none;html=1;rounded=0;fontSize=9;fillColor=#f5f5f5;strokeColor=#4D4D4D;entryX=0.5;entryY=1;entryDx=0;entryDy=0;fontColor=#B3B3B3;" parent="V_8Qq8RZZ0c48j0kGkGb-1" edge="1">
          <mxGeometry width="50" height="50" relative="1" as="geometry">
            <mxPoint x="100" y="520" as="sourcePoint" />
            <mxPoint x="140" y="520" as="targetPoint" />
            <Array as="points">
              <mxPoint x="100" y="530" />
              <mxPoint x="140" y="530" />
            </Array>
          </mxGeometry>
        </mxCell>
        <mxCell id="V_8Qq8RZZ0c48j0kGkGb-48" value="&lt;i&gt;d&lt;/i&gt; = 4&lt;br&gt;Σ&lt;i&gt;o&lt;/i&gt; = 4" style="edgeLabel;html=1;align=center;verticalAlign=middle;resizable=0;points=[];fontSize=6;fontColor=#4D4D4D;" parent="V_8Qq8RZZ0c48j0kGkGb-47" connectable="0" vertex="1">
          <mxGeometry x="0.1762" y="2" relative="1" as="geometry">
            <mxPoint x="-5" y="2" as="offset" />
          </mxGeometry>
        </mxCell>
        <mxCell id="V_8Qq8RZZ0c48j0kGkGb-49" value="" style="endArrow=none;html=1;rounded=0;fontSize=9;fillColor=#f5f5f5;strokeColor=#4D4D4D;fontColor=#B3B3B3;" parent="V_8Qq8RZZ0c48j0kGkGb-1" edge="1">
          <mxGeometry width="50" height="50" relative="1" as="geometry">
            <mxPoint x="60" y="420" as="sourcePoint" />
            <mxPoint x="140" y="420" as="targetPoint" />
            <Array as="points">
              <mxPoint x="60" y="410" />
              <mxPoint x="140" y="410" />
            </Array>
          </mxGeometry>
        </mxCell>
        <mxCell id="V_8Qq8RZZ0c48j0kGkGb-50" value="&lt;i&gt;d&lt;/i&gt; = 8&lt;br&gt;Σ&lt;i&gt;o&lt;/i&gt; = 8" style="edgeLabel;html=1;align=center;verticalAlign=middle;resizable=0;points=[];fontSize=6;fontColor=#4D4D4D;" parent="V_8Qq8RZZ0c48j0kGkGb-49" connectable="0" vertex="1">
          <mxGeometry x="0.1762" y="2" relative="1" as="geometry">
            <mxPoint x="-9" y="2" as="offset" />
          </mxGeometry>
        </mxCell>
        <mxCell id="V_8Qq8RZZ0c48j0kGkGb-51" value="" style="rounded=0;whiteSpace=wrap;html=1;fontSize=9;fillColor=#f5f5f5;fontColor=#333333;strokeColor=#666666;" parent="V_8Qq8RZZ0c48j0kGkGb-1" vertex="1">
          <mxGeometry x="90" y="470" width="20" height="10" as="geometry" />
        </mxCell>
        <mxCell id="V_8Qq8RZZ0c48j0kGkGb-52" value="&lt;font color=&quot;#333333&quot;&gt;&lt;span style=&quot;font-size: 5px;&quot;&gt;N/A&lt;/span&gt;&lt;/font&gt;" style="text;html=1;strokeColor=none;fillColor=none;align=center;verticalAlign=middle;whiteSpace=wrap;rounded=0;fontSize=9;fontStyle=2" parent="V_8Qq8RZZ0c48j0kGkGb-1" vertex="1">
          <mxGeometry x="90" y="182" width="20" height="30" as="geometry" />
        </mxCell>
        <mxCell id="V_8Qq8RZZ0c48j0kGkGb-53" value="&lt;span style=&quot;color: rgb(51, 51, 51); font-size: 5px;&quot;&gt;N/A&lt;/span&gt;" style="text;html=1;strokeColor=none;fillColor=none;align=center;verticalAlign=middle;whiteSpace=wrap;rounded=0;fontSize=9;fontStyle=2" parent="V_8Qq8RZZ0c48j0kGkGb-1" vertex="1">
          <mxGeometry x="400" y="181" width="20" height="30" as="geometry" />
        </mxCell>
        <mxCell id="V_8Qq8RZZ0c48j0kGkGb-54" value="&lt;font color=&quot;#333333&quot;&gt;&lt;span style=&quot;font-size: 5px;&quot;&gt;N/A&lt;/span&gt;&lt;/font&gt;" style="text;html=1;strokeColor=none;fillColor=none;align=center;verticalAlign=middle;whiteSpace=wrap;rounded=0;fontSize=9;fontStyle=2" parent="V_8Qq8RZZ0c48j0kGkGb-1" vertex="1">
          <mxGeometry x="85" y="440" width="30" height="30" as="geometry" />
        </mxCell>
        <mxCell id="V_8Qq8RZZ0c48j0kGkGb-57" value="" style="endArrow=none;html=1;rounded=0;fillColor=#f5f5f5;strokeColor=#666666;dashed=1;dashPattern=1 4;" parent="V_8Qq8RZZ0c48j0kGkGb-1" edge="1">
          <mxGeometry width="50" height="50" relative="1" as="geometry">
            <mxPoint x="490" y="221" as="sourcePoint" />
            <mxPoint x="610" y="221" as="targetPoint" />
          </mxGeometry>
        </mxCell>
        <mxCell id="V_8Qq8RZZ0c48j0kGkGb-58" value="&lt;font style=&quot;font-size: 5px&quot;&gt;&lt;i&gt;m&lt;/i&gt;&lt;sub&gt;p&lt;/sub&gt; = 4&lt;/font&gt;" style="rounded=0;whiteSpace=wrap;html=1;fontSize=9;fillColor=#f5f5f5;strokeColor=#666666;fontColor=#333333;" parent="V_8Qq8RZZ0c48j0kGkGb-1" vertex="1">
          <mxGeometry x="190" y="172" width="20" height="50" as="geometry" />
        </mxCell>
        <mxCell id="V_8Qq8RZZ0c48j0kGkGb-59" value="&lt;font style=&quot;font-size: 5px&quot;&gt;&lt;i&gt;m&lt;/i&gt;&lt;sub&gt;n&lt;/sub&gt; = -4&lt;/font&gt;" style="rounded=0;whiteSpace=wrap;html=1;fontSize=5;fillColor=#f5f5f5;strokeColor=#666666;fontColor=#333333;" parent="V_8Qq8RZZ0c48j0kGkGb-1" vertex="1">
          <mxGeometry x="270" y="172" width="20" height="50" as="geometry" />
        </mxCell>
        <mxCell id="V_8Qq8RZZ0c48j0kGkGb-60" value="" style="endArrow=none;html=1;rounded=0;fillColor=#f5f5f5;strokeColor=#666666;dashed=1;dashPattern=1 4;" parent="V_8Qq8RZZ0c48j0kGkGb-1" edge="1">
          <mxGeometry width="50" height="50" relative="1" as="geometry">
            <mxPoint x="180" y="222" as="sourcePoint" />
            <mxPoint x="300" y="222" as="targetPoint" />
          </mxGeometry>
        </mxCell>
        <mxCell id="V_8Qq8RZZ0c48j0kGkGb-61" value="" style="endArrow=none;html=1;rounded=0;fontSize=9;fillColor=#f5f5f5;strokeColor=#4D4D4D;fontColor=#B3B3B3;" parent="V_8Qq8RZZ0c48j0kGkGb-1" edge="1">
          <mxGeometry width="50" height="50" relative="1" as="geometry">
            <mxPoint x="200" y="232" as="sourcePoint" />
            <mxPoint x="240" y="232" as="targetPoint" />
            <Array as="points">
              <mxPoint x="200" y="242" />
              <mxPoint x="240" y="242" />
            </Array>
          </mxGeometry>
        </mxCell>
        <mxCell id="V_8Qq8RZZ0c48j0kGkGb-62" value="&lt;i&gt;d&lt;/i&gt; = 4&lt;br&gt;Σ&lt;i&gt;m&lt;/i&gt;&amp;nbsp;= 4" style="edgeLabel;html=1;align=center;verticalAlign=middle;resizable=0;points=[];fontSize=6;fontColor=#4D4D4D;" parent="V_8Qq8RZZ0c48j0kGkGb-61" connectable="0" vertex="1">
          <mxGeometry x="0.1762" y="2" relative="1" as="geometry">
            <mxPoint x="-5" y="2" as="offset" />
          </mxGeometry>
        </mxCell>
        <mxCell id="V_8Qq8RZZ0c48j0kGkGb-63" value="" style="endArrow=none;html=1;rounded=0;fontSize=9;fillColor=#f5f5f5;strokeColor=#4D4D4D;entryX=0.5;entryY=1;entryDx=0;entryDy=0;fontColor=#B3B3B3;" parent="V_8Qq8RZZ0c48j0kGkGb-1" edge="1">
          <mxGeometry width="50" height="50" relative="1" as="geometry">
            <mxPoint x="240" y="262" as="sourcePoint" />
            <mxPoint x="280" y="262" as="targetPoint" />
            <Array as="points">
              <mxPoint x="240" y="272" />
              <mxPoint x="280" y="272" />
            </Array>
          </mxGeometry>
        </mxCell>
        <mxCell id="V_8Qq8RZZ0c48j0kGkGb-64" value="&lt;i&gt;d&lt;/i&gt; = -4&lt;br&gt;Σ&lt;i&gt;m&lt;/i&gt;&amp;nbsp;= -4" style="edgeLabel;html=1;align=center;verticalAlign=middle;resizable=0;points=[];fontSize=6;fontColor=#4D4D4D;" parent="V_8Qq8RZZ0c48j0kGkGb-63" connectable="0" vertex="1">
          <mxGeometry x="0.1762" y="2" relative="1" as="geometry">
            <mxPoint x="-5" y="7" as="offset" />
          </mxGeometry>
        </mxCell>
        <mxCell id="V_8Qq8RZZ0c48j0kGkGb-65" value="" style="endArrow=none;html=1;rounded=0;fontSize=9;fillColor=#f5f5f5;strokeColor=#4D4D4D;fontColor=#B3B3B3;" parent="V_8Qq8RZZ0c48j0kGkGb-1" edge="1">
          <mxGeometry width="50" height="50" relative="1" as="geometry">
            <mxPoint x="200" y="162" as="sourcePoint" />
            <mxPoint x="280" y="162" as="targetPoint" />
            <Array as="points">
              <mxPoint x="200" y="152" />
              <mxPoint x="280" y="152" />
            </Array>
          </mxGeometry>
        </mxCell>
        <mxCell id="V_8Qq8RZZ0c48j0kGkGb-66" value="&lt;i&gt;d&lt;/i&gt; = 0&lt;br&gt;Σ&lt;i&gt;m&lt;/i&gt;&amp;nbsp;= 0" style="edgeLabel;html=1;align=center;verticalAlign=middle;resizable=0;points=[];fontSize=6;fontColor=#4D4D4D;" parent="V_8Qq8RZZ0c48j0kGkGb-65" connectable="0" vertex="1">
          <mxGeometry x="0.1762" y="2" relative="1" as="geometry">
            <mxPoint x="-9" y="2" as="offset" />
          </mxGeometry>
        </mxCell>
        <mxCell id="V_8Qq8RZZ0c48j0kGkGb-67" value="" style="rounded=0;whiteSpace=wrap;html=1;fontSize=9;fillColor=#f5f5f5;fontColor=#333333;strokeColor=#666666;" parent="V_8Qq8RZZ0c48j0kGkGb-1" vertex="1">
          <mxGeometry x="230" y="212" width="20" height="10" as="geometry" />
        </mxCell>
        <mxCell id="V_8Qq8RZZ0c48j0kGkGb-68" value="&lt;font style=&quot;font-size: 5px&quot;&gt;&lt;i&gt;b&lt;/i&gt;&lt;sub&gt;p&lt;/sub&gt; = 4&lt;/font&gt;" style="rounded=0;whiteSpace=wrap;html=1;fontSize=9;fillColor=#f5f5f5;strokeColor=#666666;fontColor=#333333;" parent="V_8Qq8RZZ0c48j0kGkGb-1" vertex="1">
          <mxGeometry x="500" y="171" width="20" height="50" as="geometry" />
        </mxCell>
        <mxCell id="V_8Qq8RZZ0c48j0kGkGb-69" value="&lt;font style=&quot;font-size: 5px&quot;&gt;&lt;i&gt;b&lt;/i&gt;&lt;sub&gt;n&lt;/sub&gt; = -4&lt;/font&gt;" style="rounded=0;whiteSpace=wrap;html=1;fontSize=5;fillColor=#f5f5f5;strokeColor=#666666;fontColor=#333333;" parent="V_8Qq8RZZ0c48j0kGkGb-1" vertex="1">
          <mxGeometry x="580" y="171" width="20" height="50" as="geometry" />
        </mxCell>
        <mxCell id="V_8Qq8RZZ0c48j0kGkGb-70" value="" style="endArrow=none;html=1;rounded=0;fontSize=9;fillColor=#f5f5f5;strokeColor=#4D4D4D;fontColor=#B3B3B3;" parent="V_8Qq8RZZ0c48j0kGkGb-1" edge="1">
          <mxGeometry width="50" height="50" relative="1" as="geometry">
            <mxPoint x="510" y="231" as="sourcePoint" />
            <mxPoint x="550" y="231" as="targetPoint" />
            <Array as="points">
              <mxPoint x="510" y="241" />
              <mxPoint x="550" y="241" />
            </Array>
          </mxGeometry>
        </mxCell>
        <mxCell id="V_8Qq8RZZ0c48j0kGkGb-71" value="&lt;i&gt;d&lt;/i&gt; = 4&lt;br&gt;Σ&lt;i&gt;b&lt;/i&gt; = 4" style="edgeLabel;html=1;align=center;verticalAlign=middle;resizable=0;points=[];fontSize=6;fontColor=#4D4D4D;" parent="V_8Qq8RZZ0c48j0kGkGb-70" connectable="0" vertex="1">
          <mxGeometry x="0.1762" y="2" relative="1" as="geometry">
            <mxPoint x="-5" y="2" as="offset" />
          </mxGeometry>
        </mxCell>
        <mxCell id="V_8Qq8RZZ0c48j0kGkGb-72" value="" style="endArrow=none;html=1;rounded=0;fontSize=9;fillColor=#f5f5f5;strokeColor=#4D4D4D;entryX=0.5;entryY=1;entryDx=0;entryDy=0;fontColor=#B3B3B3;" parent="V_8Qq8RZZ0c48j0kGkGb-1" edge="1">
          <mxGeometry width="50" height="50" relative="1" as="geometry">
            <mxPoint x="550" y="261" as="sourcePoint" />
            <mxPoint x="590" y="261" as="targetPoint" />
            <Array as="points">
              <mxPoint x="550" y="271" />
              <mxPoint x="590" y="271" />
            </Array>
          </mxGeometry>
        </mxCell>
        <mxCell id="V_8Qq8RZZ0c48j0kGkGb-73" value="&lt;i&gt;d&lt;/i&gt; = -4&lt;br&gt;Σ&lt;i&gt;b&lt;/i&gt; = -4" style="edgeLabel;html=1;align=center;verticalAlign=middle;resizable=0;points=[];fontSize=6;fontColor=#4D4D4D;" parent="V_8Qq8RZZ0c48j0kGkGb-72" connectable="0" vertex="1">
          <mxGeometry x="0.1762" y="2" relative="1" as="geometry">
            <mxPoint x="-5" y="2" as="offset" />
          </mxGeometry>
        </mxCell>
        <mxCell id="V_8Qq8RZZ0c48j0kGkGb-74" value="" style="endArrow=none;html=1;rounded=0;fontSize=9;fillColor=#f5f5f5;strokeColor=#4D4D4D;fontColor=#B3B3B3;" parent="V_8Qq8RZZ0c48j0kGkGb-1" edge="1">
          <mxGeometry width="50" height="50" relative="1" as="geometry">
            <mxPoint x="510" y="161" as="sourcePoint" />
            <mxPoint x="590" y="161" as="targetPoint" />
            <Array as="points">
              <mxPoint x="510" y="151" />
              <mxPoint x="590" y="151" />
            </Array>
          </mxGeometry>
        </mxCell>
        <mxCell id="V_8Qq8RZZ0c48j0kGkGb-75" value="&lt;i&gt;d&lt;/i&gt; = 0&lt;br&gt;Σ&lt;i&gt;b&lt;/i&gt; = 0" style="edgeLabel;html=1;align=center;verticalAlign=middle;resizable=0;points=[];fontSize=6;fontColor=#4D4D4D;" parent="V_8Qq8RZZ0c48j0kGkGb-74" connectable="0" vertex="1">
          <mxGeometry x="0.1762" y="2" relative="1" as="geometry">
            <mxPoint x="-9" y="2" as="offset" />
          </mxGeometry>
        </mxCell>
        <mxCell id="V_8Qq8RZZ0c48j0kGkGb-76" value="" style="rounded=0;whiteSpace=wrap;html=1;fontSize=9;fillColor=#f5f5f5;fontColor=#333333;strokeColor=#666666;" parent="V_8Qq8RZZ0c48j0kGkGb-1" vertex="1">
          <mxGeometry x="540" y="211" width="20" height="10" as="geometry" />
        </mxCell>
        <mxCell id="V_8Qq8RZZ0c48j0kGkGb-77" value="&lt;font style=&quot;&quot;&gt;&lt;span style=&quot;font-size: 5px;&quot;&gt;&lt;i&gt;o&lt;/i&gt;&lt;sub&gt;p&lt;/sub&gt;&lt;/span&gt;&lt;span style=&quot;font-size: 5px;&quot;&gt; = 2&lt;/span&gt;&lt;/font&gt;" style="rounded=0;whiteSpace=wrap;html=1;fontSize=9;fillColor=#f5f5f5;strokeColor=#666666;fontColor=#333333;" parent="V_8Qq8RZZ0c48j0kGkGb-1" vertex="1">
          <mxGeometry x="190" y="450" width="20" height="30" as="geometry" />
        </mxCell>
        <mxCell id="V_8Qq8RZZ0c48j0kGkGb-78" value="&lt;font style=&quot;&quot;&gt;&lt;span style=&quot;font-size: 5px;&quot;&gt;&lt;i&gt;o&lt;/i&gt;&lt;sub&gt;n&lt;/sub&gt;&lt;/span&gt; = 0&lt;/font&gt;" style="rounded=0;whiteSpace=wrap;html=1;fontSize=5;fillColor=#f5f5f5;strokeColor=#666666;fontColor=#333333;" parent="V_8Qq8RZZ0c48j0kGkGb-1" vertex="1">
          <mxGeometry x="270" y="470" width="20" height="10" as="geometry" />
        </mxCell>
        <mxCell id="V_8Qq8RZZ0c48j0kGkGb-79" value="" style="endArrow=none;html=1;rounded=0;fontSize=9;fillColor=#f5f5f5;strokeColor=#4D4D4D;fontColor=#B3B3B3;" parent="V_8Qq8RZZ0c48j0kGkGb-1" edge="1">
          <mxGeometry width="50" height="50" relative="1" as="geometry">
            <mxPoint x="200" y="490" as="sourcePoint" />
            <mxPoint x="240" y="490" as="targetPoint" />
            <Array as="points">
              <mxPoint x="200" y="500" />
              <mxPoint x="240" y="500" />
            </Array>
          </mxGeometry>
        </mxCell>
        <mxCell id="V_8Qq8RZZ0c48j0kGkGb-80" value="&lt;i&gt;d&lt;/i&gt; = 2&lt;br&gt;Σ&lt;i&gt;o&lt;/i&gt; = 2" style="edgeLabel;html=1;align=center;verticalAlign=middle;resizable=0;points=[];fontSize=6;fontColor=#4D4D4D;" parent="V_8Qq8RZZ0c48j0kGkGb-79" connectable="0" vertex="1">
          <mxGeometry x="0.1762" y="2" relative="1" as="geometry">
            <mxPoint x="-5" y="2" as="offset" />
          </mxGeometry>
        </mxCell>
        <mxCell id="V_8Qq8RZZ0c48j0kGkGb-81" value="" style="endArrow=none;html=1;rounded=0;fontSize=9;fillColor=#f5f5f5;strokeColor=#4D4D4D;entryX=0.5;entryY=1;entryDx=0;entryDy=0;fontColor=#B3B3B3;" parent="V_8Qq8RZZ0c48j0kGkGb-1" edge="1">
          <mxGeometry width="50" height="50" relative="1" as="geometry">
            <mxPoint x="240" y="520" as="sourcePoint" />
            <mxPoint x="280" y="520" as="targetPoint" />
            <Array as="points">
              <mxPoint x="240" y="530" />
              <mxPoint x="280" y="530" />
            </Array>
          </mxGeometry>
        </mxCell>
        <mxCell id="V_8Qq8RZZ0c48j0kGkGb-82" value="&lt;i&gt;d&lt;/i&gt; = 0&lt;br&gt;Σ&lt;i&gt;o&lt;/i&gt; = 0" style="edgeLabel;html=1;align=center;verticalAlign=middle;resizable=0;points=[];fontSize=6;fontColor=#4D4D4D;" parent="V_8Qq8RZZ0c48j0kGkGb-81" connectable="0" vertex="1">
          <mxGeometry x="0.1762" y="2" relative="1" as="geometry">
            <mxPoint x="-5" y="2" as="offset" />
          </mxGeometry>
        </mxCell>
        <mxCell id="V_8Qq8RZZ0c48j0kGkGb-83" value="" style="endArrow=none;html=1;rounded=0;fontSize=9;fillColor=#f5f5f5;strokeColor=#4D4D4D;fontColor=#B3B3B3;" parent="V_8Qq8RZZ0c48j0kGkGb-1" edge="1">
          <mxGeometry width="50" height="50" relative="1" as="geometry">
            <mxPoint x="200" y="420" as="sourcePoint" />
            <mxPoint x="280" y="420" as="targetPoint" />
            <Array as="points">
              <mxPoint x="200" y="410" />
              <mxPoint x="280" y="410" />
            </Array>
          </mxGeometry>
        </mxCell>
        <mxCell id="V_8Qq8RZZ0c48j0kGkGb-84" value="&lt;i&gt;d&lt;/i&gt; = 2&lt;br&gt;Σ&lt;i&gt;o&lt;/i&gt; = 2" style="edgeLabel;html=1;align=center;verticalAlign=middle;resizable=0;points=[];fontSize=6;fontColor=#4D4D4D;" parent="V_8Qq8RZZ0c48j0kGkGb-83" connectable="0" vertex="1">
          <mxGeometry x="0.1762" y="2" relative="1" as="geometry">
            <mxPoint x="-9" y="2" as="offset" />
          </mxGeometry>
        </mxCell>
        <mxCell id="V_8Qq8RZZ0c48j0kGkGb-85" value="" style="rounded=0;whiteSpace=wrap;html=1;fontSize=9;fillColor=#f5f5f5;fontColor=#333333;strokeColor=#666666;" parent="V_8Qq8RZZ0c48j0kGkGb-1" vertex="1">
          <mxGeometry x="230" y="470" width="20" height="10" as="geometry" />
        </mxCell>
        <mxCell id="V_8Qq8RZZ0c48j0kGkGb-86" value="&lt;span style=&quot;color: rgb(51, 51, 51); font-size: 5px;&quot;&gt;N/A&lt;/span&gt;" style="text;html=1;strokeColor=none;fillColor=none;align=center;verticalAlign=middle;whiteSpace=wrap;rounded=0;fontSize=9;fontStyle=2" parent="V_8Qq8RZZ0c48j0kGkGb-1" vertex="1">
          <mxGeometry x="230" y="182" width="20" height="30" as="geometry" />
        </mxCell>
        <mxCell id="V_8Qq8RZZ0c48j0kGkGb-87" value="&lt;span style=&quot;color: rgb(51, 51, 51); font-size: 5px;&quot;&gt;N/A&lt;/span&gt;" style="text;html=1;strokeColor=none;fillColor=none;align=center;verticalAlign=middle;whiteSpace=wrap;rounded=0;fontSize=9;fontStyle=2" parent="V_8Qq8RZZ0c48j0kGkGb-1" vertex="1">
          <mxGeometry x="540" y="181" width="20" height="30" as="geometry" />
        </mxCell>
        <mxCell id="V_8Qq8RZZ0c48j0kGkGb-88" value="&lt;font color=&quot;#333333&quot;&gt;&lt;span style=&quot;font-size: 5px;&quot;&gt;N/A&lt;/span&gt;&lt;/font&gt;" style="text;html=1;strokeColor=none;fillColor=none;align=center;verticalAlign=middle;whiteSpace=wrap;rounded=0;fontSize=9;fontStyle=2" parent="V_8Qq8RZZ0c48j0kGkGb-1" vertex="1">
          <mxGeometry x="225" y="440" width="30" height="30" as="geometry" />
        </mxCell>
        <mxCell id="rzB6C8EH04PqC8TSvOPb-16" style="edgeStyle=orthogonalEdgeStyle;rounded=0;orthogonalLoop=1;jettySize=auto;html=1;exitX=0.5;exitY=0;exitDx=0;exitDy=0;dashed=1;dashPattern=1 4;endArrow=none;endFill=0;" parent="V_8Qq8RZZ0c48j0kGkGb-1" edge="1">
          <mxGeometry relative="1" as="geometry">
            <mxPoint x="199.9354838709678" y="302" as="targetPoint" />
            <mxPoint x="200" y="307" as="sourcePoint" />
          </mxGeometry>
        </mxCell>
        <mxCell id="rzB6C8EH04PqC8TSvOPb-17" style="edgeStyle=orthogonalEdgeStyle;rounded=0;orthogonalLoop=1;jettySize=auto;html=1;exitX=0.5;exitY=0;exitDx=0;exitDy=0;endArrow=none;endFill=0;strokeColor=#666666;" parent="V_8Qq8RZZ0c48j0kGkGb-1" edge="1">
          <mxGeometry relative="1" as="geometry">
            <mxPoint x="200" y="302" as="targetPoint" />
            <mxPoint x="200" y="307" as="sourcePoint" />
          </mxGeometry>
        </mxCell>
        <mxCell id="rzB6C8EH04PqC8TSvOPb-18" value="positive" style="text;html=1;strokeColor=none;fillColor=none;align=left;verticalAlign=middle;whiteSpace=wrap;rounded=0;fontSize=6;spacing=0;" parent="V_8Qq8RZZ0c48j0kGkGb-1" vertex="1">
          <mxGeometry x="190" y="307" width="20" height="10" as="geometry" />
        </mxCell>
        <mxCell id="rzB6C8EH04PqC8TSvOPb-19" value="" style="endArrow=none;html=1;rounded=0;fillColor=#f5f5f5;strokeColor=#666666;entryX=1;entryY=0.5;entryDx=0;entryDy=0;" parent="V_8Qq8RZZ0c48j0kGkGb-1" edge="1">
          <mxGeometry width="50" height="50" relative="1" as="geometry">
            <mxPoint x="300" y="302" as="sourcePoint" />
            <mxPoint x="180" y="302" as="targetPoint" />
          </mxGeometry>
        </mxCell>
        <mxCell id="rzB6C8EH04PqC8TSvOPb-20" style="edgeStyle=orthogonalEdgeStyle;rounded=0;orthogonalLoop=1;jettySize=auto;html=1;exitX=0.5;exitY=0;exitDx=0;exitDy=0;endArrow=none;endFill=0;strokeColor=#666666;" parent="V_8Qq8RZZ0c48j0kGkGb-1" edge="1">
          <mxGeometry relative="1" as="geometry">
            <mxPoint x="239.9354838709678" y="302" as="targetPoint" />
            <mxPoint x="240" y="307" as="sourcePoint" />
          </mxGeometry>
        </mxCell>
        <mxCell id="rzB6C8EH04PqC8TSvOPb-21" value="control" style="text;html=1;strokeColor=none;fillColor=none;align=left;verticalAlign=middle;whiteSpace=wrap;rounded=0;fontSize=6;spacing=0;" parent="V_8Qq8RZZ0c48j0kGkGb-1" vertex="1">
          <mxGeometry x="230" y="307" width="20" height="10" as="geometry" />
        </mxCell>
        <mxCell id="rzB6C8EH04PqC8TSvOPb-22" style="edgeStyle=orthogonalEdgeStyle;rounded=0;orthogonalLoop=1;jettySize=auto;html=1;exitX=0.5;exitY=0;exitDx=0;exitDy=0;endArrow=none;endFill=0;strokeColor=#666666;" parent="V_8Qq8RZZ0c48j0kGkGb-1" edge="1">
          <mxGeometry relative="1" as="geometry">
            <mxPoint x="279.9354838709678" y="302" as="targetPoint" />
            <mxPoint x="280" y="307" as="sourcePoint" />
          </mxGeometry>
        </mxCell>
        <mxCell id="rzB6C8EH04PqC8TSvOPb-23" value="negative" style="text;html=1;strokeColor=none;fillColor=none;align=left;verticalAlign=middle;whiteSpace=wrap;rounded=0;fontSize=6;spacing=0;" parent="V_8Qq8RZZ0c48j0kGkGb-1" vertex="1">
          <mxGeometry x="270" y="307" width="20" height="10" as="geometry" />
        </mxCell>
        <mxCell id="rzB6C8EH04PqC8TSvOPb-24" value="Motivation ratings variant &lt;br&gt;across conditions" style="text;html=1;strokeColor=#666666;fillColor=#f5f5f5;align=center;verticalAlign=middle;whiteSpace=wrap;rounded=0;fontSize=6;fontColor=#333333;" parent="V_8Qq8RZZ0c48j0kGkGb-1" vertex="1">
          <mxGeometry x="180" y="112" width="120" height="20" as="geometry" />
        </mxCell>
        <mxCell id="rzB6C8EH04PqC8TSvOPb-26" value="&lt;span style=&quot;color: rgb(51, 51, 51); font-size: 8px;&quot;&gt;A. &lt;span style=&quot;font-weight: normal;&quot;&gt;Motivation to confirm the researcher&#39;s hypothesis (&lt;i&gt;m&lt;/i&gt;)&lt;/span&gt;&lt;/span&gt;" style="text;html=1;strokeColor=none;fillColor=none;align=left;verticalAlign=middle;whiteSpace=wrap;rounded=0;fontSize=8;fontStyle=1" parent="V_8Qq8RZZ0c48j0kGkGb-1" vertex="1">
          <mxGeometry x="10" y="82" width="290" height="30" as="geometry" />
        </mxCell>
        <mxCell id="rzB6C8EH04PqC8TSvOPb-30" value="Belief ratings invariant &lt;br&gt;across conditions" style="text;html=1;strokeColor=#666666;fillColor=#f5f5f5;align=center;verticalAlign=middle;whiteSpace=wrap;rounded=0;fontSize=6;fontColor=#333333;" parent="V_8Qq8RZZ0c48j0kGkGb-1" vertex="1">
          <mxGeometry x="350" y="112" width="120" height="20" as="geometry" />
        </mxCell>
        <mxCell id="rzB6C8EH04PqC8TSvOPb-37" value="mood" style="text;html=1;align=center;verticalAlign=middle;whiteSpace=wrap;rounded=0;labelBorderColor=none;fontSize=6;rotation=-90;fillColor=none;strokeColor=none;fontStyle=1" parent="V_8Qq8RZZ0c48j0kGkGb-1" vertex="1">
          <mxGeometry x="300" y="211" width="60" height="15" as="geometry" />
        </mxCell>
        <mxCell id="rzB6C8EH04PqC8TSvOPb-38" style="edgeStyle=orthogonalEdgeStyle;rounded=0;orthogonalLoop=1;jettySize=auto;html=1;exitX=0.5;exitY=0;exitDx=0;exitDy=0;dashed=1;dashPattern=1 4;endArrow=none;endFill=0;" parent="V_8Qq8RZZ0c48j0kGkGb-1" edge="1">
          <mxGeometry relative="1" as="geometry">
            <mxPoint x="369.9354838709678" y="301.9999999999999" as="targetPoint" />
            <mxPoint x="370" y="306.9999999999999" as="sourcePoint" />
          </mxGeometry>
        </mxCell>
        <mxCell id="rzB6C8EH04PqC8TSvOPb-39" style="edgeStyle=orthogonalEdgeStyle;rounded=0;orthogonalLoop=1;jettySize=auto;html=1;exitX=0.5;exitY=0;exitDx=0;exitDy=0;endArrow=none;endFill=0;strokeColor=#666666;" parent="V_8Qq8RZZ0c48j0kGkGb-1" edge="1">
          <mxGeometry relative="1" as="geometry">
            <mxPoint x="370" y="301.9999999999999" as="targetPoint" />
            <mxPoint x="370" y="306.9999999999999" as="sourcePoint" />
          </mxGeometry>
        </mxCell>
        <mxCell id="rzB6C8EH04PqC8TSvOPb-40" value="positive" style="text;html=1;strokeColor=none;fillColor=none;align=left;verticalAlign=middle;whiteSpace=wrap;rounded=0;fontSize=6;spacing=0;" parent="V_8Qq8RZZ0c48j0kGkGb-1" vertex="1">
          <mxGeometry x="360" y="307" width="20" height="10" as="geometry" />
        </mxCell>
        <mxCell id="rzB6C8EH04PqC8TSvOPb-42" value="" style="endArrow=none;html=1;rounded=0;fillColor=#f5f5f5;strokeColor=#666666;" parent="V_8Qq8RZZ0c48j0kGkGb-1" edge="1">
          <mxGeometry width="50" height="50" relative="1" as="geometry">
            <mxPoint x="350" y="301.9999999999999" as="sourcePoint" />
            <mxPoint x="350" y="142" as="targetPoint" />
          </mxGeometry>
        </mxCell>
        <mxCell id="rzB6C8EH04PqC8TSvOPb-43" value="0" style="text;html=1;strokeColor=none;fillColor=none;align=center;verticalAlign=middle;whiteSpace=wrap;rounded=0;fontSize=6;" parent="V_8Qq8RZZ0c48j0kGkGb-1" vertex="1">
          <mxGeometry x="330" y="212" width="20" height="20" as="geometry" />
        </mxCell>
        <mxCell id="rzB6C8EH04PqC8TSvOPb-44" value="-10" style="text;html=1;strokeColor=none;fillColor=none;align=center;verticalAlign=middle;whiteSpace=wrap;rounded=0;fontSize=6;" parent="V_8Qq8RZZ0c48j0kGkGb-1" vertex="1">
          <mxGeometry x="330" y="292" width="20" height="20" as="geometry" />
        </mxCell>
        <mxCell id="rzB6C8EH04PqC8TSvOPb-45" value="" style="endArrow=none;html=1;rounded=0;fillColor=#f5f5f5;strokeColor=#666666;entryX=1;entryY=0.5;entryDx=0;entryDy=0;" parent="V_8Qq8RZZ0c48j0kGkGb-1" target="rzB6C8EH04PqC8TSvOPb-44" edge="1">
          <mxGeometry width="50" height="50" relative="1" as="geometry">
            <mxPoint x="470" y="301.9999999999999" as="sourcePoint" />
            <mxPoint x="340" y="302" as="targetPoint" />
          </mxGeometry>
        </mxCell>
        <mxCell id="rzB6C8EH04PqC8TSvOPb-46" value="10" style="text;html=1;strokeColor=none;fillColor=none;align=center;verticalAlign=middle;whiteSpace=wrap;rounded=0;fontSize=6;" parent="V_8Qq8RZZ0c48j0kGkGb-1" vertex="1">
          <mxGeometry x="330" y="137" width="20" height="20" as="geometry" />
        </mxCell>
        <mxCell id="rzB6C8EH04PqC8TSvOPb-47" style="edgeStyle=orthogonalEdgeStyle;rounded=0;orthogonalLoop=1;jettySize=auto;html=1;exitX=0.5;exitY=0;exitDx=0;exitDy=0;endArrow=none;endFill=0;strokeColor=#666666;" parent="V_8Qq8RZZ0c48j0kGkGb-1" edge="1">
          <mxGeometry relative="1" as="geometry">
            <mxPoint x="409.9354838709678" y="301.9999999999999" as="targetPoint" />
            <mxPoint x="410" y="306.9999999999999" as="sourcePoint" />
          </mxGeometry>
        </mxCell>
        <mxCell id="rzB6C8EH04PqC8TSvOPb-48" value="control" style="text;html=1;strokeColor=none;fillColor=none;align=left;verticalAlign=middle;whiteSpace=wrap;rounded=0;fontSize=6;spacing=0;" parent="V_8Qq8RZZ0c48j0kGkGb-1" vertex="1">
          <mxGeometry x="400" y="307" width="20" height="10" as="geometry" />
        </mxCell>
        <mxCell id="rzB6C8EH04PqC8TSvOPb-49" style="edgeStyle=orthogonalEdgeStyle;rounded=0;orthogonalLoop=1;jettySize=auto;html=1;exitX=0.5;exitY=0;exitDx=0;exitDy=0;endArrow=none;endFill=0;strokeColor=#666666;" parent="V_8Qq8RZZ0c48j0kGkGb-1" edge="1">
          <mxGeometry relative="1" as="geometry">
            <mxPoint x="449.9354838709678" y="301.9999999999999" as="targetPoint" />
            <mxPoint x="450" y="306.9999999999999" as="sourcePoint" />
          </mxGeometry>
        </mxCell>
        <mxCell id="rzB6C8EH04PqC8TSvOPb-50" value="negative" style="text;html=1;strokeColor=none;fillColor=none;align=left;verticalAlign=middle;whiteSpace=wrap;rounded=0;fontSize=6;spacing=0;" parent="V_8Qq8RZZ0c48j0kGkGb-1" vertex="1">
          <mxGeometry x="440" y="307" width="20" height="10" as="geometry" />
        </mxCell>
        <mxCell id="rzB6C8EH04PqC8TSvOPb-63" style="edgeStyle=orthogonalEdgeStyle;rounded=0;orthogonalLoop=1;jettySize=auto;html=1;exitX=0.5;exitY=0;exitDx=0;exitDy=0;dashed=1;dashPattern=1 4;endArrow=none;endFill=0;" parent="V_8Qq8RZZ0c48j0kGkGb-1" edge="1">
          <mxGeometry relative="1" as="geometry">
            <mxPoint x="509.9354838709678" y="301.9999999999999" as="targetPoint" />
            <mxPoint x="510" y="306.9999999999999" as="sourcePoint" />
          </mxGeometry>
        </mxCell>
        <mxCell id="rzB6C8EH04PqC8TSvOPb-64" style="edgeStyle=orthogonalEdgeStyle;rounded=0;orthogonalLoop=1;jettySize=auto;html=1;exitX=0.5;exitY=0;exitDx=0;exitDy=0;endArrow=none;endFill=0;strokeColor=#666666;" parent="V_8Qq8RZZ0c48j0kGkGb-1" edge="1">
          <mxGeometry relative="1" as="geometry">
            <mxPoint x="510" y="301.9999999999999" as="targetPoint" />
            <mxPoint x="510" y="306.9999999999999" as="sourcePoint" />
          </mxGeometry>
        </mxCell>
        <mxCell id="rzB6C8EH04PqC8TSvOPb-65" value="positive" style="text;html=1;strokeColor=none;fillColor=none;align=left;verticalAlign=middle;whiteSpace=wrap;rounded=0;fontSize=6;spacing=0;" parent="V_8Qq8RZZ0c48j0kGkGb-1" vertex="1">
          <mxGeometry x="500" y="307" width="20" height="10" as="geometry" />
        </mxCell>
        <mxCell id="rzB6C8EH04PqC8TSvOPb-66" value="" style="endArrow=none;html=1;rounded=0;fillColor=#f5f5f5;strokeColor=#666666;entryX=1;entryY=0.5;entryDx=0;entryDy=0;" parent="V_8Qq8RZZ0c48j0kGkGb-1" edge="1">
          <mxGeometry width="50" height="50" relative="1" as="geometry">
            <mxPoint x="610" y="301.9999999999999" as="sourcePoint" />
            <mxPoint x="490" y="301.9999999999999" as="targetPoint" />
          </mxGeometry>
        </mxCell>
        <mxCell id="rzB6C8EH04PqC8TSvOPb-67" style="edgeStyle=orthogonalEdgeStyle;rounded=0;orthogonalLoop=1;jettySize=auto;html=1;exitX=0.5;exitY=0;exitDx=0;exitDy=0;endArrow=none;endFill=0;strokeColor=#666666;" parent="V_8Qq8RZZ0c48j0kGkGb-1" edge="1">
          <mxGeometry relative="1" as="geometry">
            <mxPoint x="549.9354838709678" y="301.9999999999999" as="targetPoint" />
            <mxPoint x="550" y="306.9999999999999" as="sourcePoint" />
          </mxGeometry>
        </mxCell>
        <mxCell id="rzB6C8EH04PqC8TSvOPb-68" value="control" style="text;html=1;strokeColor=none;fillColor=none;align=left;verticalAlign=middle;whiteSpace=wrap;rounded=0;fontSize=6;spacing=0;" parent="V_8Qq8RZZ0c48j0kGkGb-1" vertex="1">
          <mxGeometry x="540" y="307" width="20" height="10" as="geometry" />
        </mxCell>
        <mxCell id="rzB6C8EH04PqC8TSvOPb-69" style="edgeStyle=orthogonalEdgeStyle;rounded=0;orthogonalLoop=1;jettySize=auto;html=1;exitX=0.5;exitY=0;exitDx=0;exitDy=0;endArrow=none;endFill=0;strokeColor=#666666;" parent="V_8Qq8RZZ0c48j0kGkGb-1" edge="1">
          <mxGeometry relative="1" as="geometry">
            <mxPoint x="589.9354838709678" y="301.9999999999999" as="targetPoint" />
            <mxPoint x="590" y="306.9999999999999" as="sourcePoint" />
          </mxGeometry>
        </mxCell>
        <mxCell id="rzB6C8EH04PqC8TSvOPb-70" value="negative" style="text;html=1;strokeColor=none;fillColor=none;align=left;verticalAlign=middle;whiteSpace=wrap;rounded=0;fontSize=6;spacing=0;" parent="V_8Qq8RZZ0c48j0kGkGb-1" vertex="1">
          <mxGeometry x="580" y="307" width="20" height="10" as="geometry" />
        </mxCell>
        <mxCell id="rzB6C8EH04PqC8TSvOPb-71" value="Belief ratings variant &lt;br&gt;across conditions" style="text;html=1;strokeColor=#666666;fillColor=#f5f5f5;align=center;verticalAlign=middle;whiteSpace=wrap;rounded=0;fontSize=6;fontColor=#333333;" parent="V_8Qq8RZZ0c48j0kGkGb-1" vertex="1">
          <mxGeometry x="490" y="112" width="120" height="20" as="geometry" />
        </mxCell>
        <mxCell id="rzB6C8EH04PqC8TSvOPb-72" value="&lt;span style=&quot;color: rgb(51, 51, 51); font-size: 8px;&quot;&gt;B. &lt;span style=&quot;font-weight: normal;&quot;&gt;Belief in researcher&#39;s hypothesis (&lt;i&gt;b&lt;/i&gt;)&lt;/span&gt;&lt;/span&gt;" style="text;html=1;strokeColor=none;fillColor=none;align=left;verticalAlign=middle;whiteSpace=wrap;rounded=0;fontSize=8;fontStyle=1" parent="V_8Qq8RZZ0c48j0kGkGb-1" vertex="1">
          <mxGeometry x="320" y="82" width="290" height="30" as="geometry" />
        </mxCell>
        <mxCell id="rzB6C8EH04PqC8TSvOPb-141" value="Opportunity ratings invariant &lt;br&gt;across conditions" style="text;html=1;strokeColor=#666666;fillColor=#f5f5f5;align=center;verticalAlign=middle;whiteSpace=wrap;rounded=0;fontSize=6;fontColor=#333333;" parent="V_8Qq8RZZ0c48j0kGkGb-1" vertex="1">
          <mxGeometry x="40" y="370" width="120" height="20" as="geometry" />
        </mxCell>
        <mxCell id="rzB6C8EH04PqC8TSvOPb-142" value="mood" style="text;html=1;align=center;verticalAlign=middle;whiteSpace=wrap;rounded=0;labelBorderColor=none;fontSize=6;rotation=-90;fillColor=none;strokeColor=none;fontStyle=1" parent="V_8Qq8RZZ0c48j0kGkGb-1" vertex="1">
          <mxGeometry x="-10" y="469" width="60" height="15" as="geometry" />
        </mxCell>
        <mxCell id="rzB6C8EH04PqC8TSvOPb-143" style="edgeStyle=orthogonalEdgeStyle;rounded=0;orthogonalLoop=1;jettySize=auto;html=1;exitX=0.5;exitY=0;exitDx=0;exitDy=0;dashed=1;dashPattern=1 4;endArrow=none;endFill=0;" parent="V_8Qq8RZZ0c48j0kGkGb-1" edge="1">
          <mxGeometry relative="1" as="geometry">
            <mxPoint x="59.9354838709678" y="560" as="targetPoint" />
            <mxPoint x="60" y="565" as="sourcePoint" />
          </mxGeometry>
        </mxCell>
        <mxCell id="rzB6C8EH04PqC8TSvOPb-144" style="edgeStyle=orthogonalEdgeStyle;rounded=0;orthogonalLoop=1;jettySize=auto;html=1;exitX=0.5;exitY=0;exitDx=0;exitDy=0;endArrow=none;endFill=0;strokeColor=#666666;" parent="V_8Qq8RZZ0c48j0kGkGb-1" edge="1">
          <mxGeometry relative="1" as="geometry">
            <mxPoint x="60" y="560" as="targetPoint" />
            <mxPoint x="60" y="565" as="sourcePoint" />
          </mxGeometry>
        </mxCell>
        <mxCell id="rzB6C8EH04PqC8TSvOPb-145" value="positive" style="text;html=1;strokeColor=none;fillColor=none;align=left;verticalAlign=middle;whiteSpace=wrap;rounded=0;fontSize=6;spacing=0;" parent="V_8Qq8RZZ0c48j0kGkGb-1" vertex="1">
          <mxGeometry x="50" y="565" width="20" height="10" as="geometry" />
        </mxCell>
        <mxCell id="rzB6C8EH04PqC8TSvOPb-146" value="" style="endArrow=none;html=1;rounded=0;fillColor=#f5f5f5;strokeColor=#666666;" parent="V_8Qq8RZZ0c48j0kGkGb-1" edge="1">
          <mxGeometry width="50" height="50" relative="1" as="geometry">
            <mxPoint x="40" y="560" as="sourcePoint" />
            <mxPoint x="40" y="400" as="targetPoint" />
          </mxGeometry>
        </mxCell>
        <mxCell id="rzB6C8EH04PqC8TSvOPb-147" value="0" style="text;html=1;strokeColor=none;fillColor=none;align=center;verticalAlign=middle;whiteSpace=wrap;rounded=0;fontSize=6;" parent="V_8Qq8RZZ0c48j0kGkGb-1" vertex="1">
          <mxGeometry x="20" y="470" width="20" height="20" as="geometry" />
        </mxCell>
        <mxCell id="rzB6C8EH04PqC8TSvOPb-148" value="-10" style="text;html=1;strokeColor=none;fillColor=none;align=center;verticalAlign=middle;whiteSpace=wrap;rounded=0;fontSize=6;" parent="V_8Qq8RZZ0c48j0kGkGb-1" vertex="1">
          <mxGeometry x="20" y="550" width="20" height="20" as="geometry" />
        </mxCell>
        <mxCell id="rzB6C8EH04PqC8TSvOPb-149" value="" style="endArrow=none;html=1;rounded=0;fillColor=#f5f5f5;strokeColor=#666666;entryX=1;entryY=0.5;entryDx=0;entryDy=0;" parent="V_8Qq8RZZ0c48j0kGkGb-1" target="rzB6C8EH04PqC8TSvOPb-148" edge="1">
          <mxGeometry width="50" height="50" relative="1" as="geometry">
            <mxPoint x="160" y="560" as="sourcePoint" />
            <mxPoint x="30" y="560" as="targetPoint" />
          </mxGeometry>
        </mxCell>
        <mxCell id="rzB6C8EH04PqC8TSvOPb-150" value="10" style="text;html=1;strokeColor=none;fillColor=none;align=center;verticalAlign=middle;whiteSpace=wrap;rounded=0;fontSize=6;" parent="V_8Qq8RZZ0c48j0kGkGb-1" vertex="1">
          <mxGeometry x="20" y="395" width="20" height="20" as="geometry" />
        </mxCell>
        <mxCell id="rzB6C8EH04PqC8TSvOPb-151" style="edgeStyle=orthogonalEdgeStyle;rounded=0;orthogonalLoop=1;jettySize=auto;html=1;exitX=0.5;exitY=0;exitDx=0;exitDy=0;endArrow=none;endFill=0;strokeColor=#666666;" parent="V_8Qq8RZZ0c48j0kGkGb-1" edge="1">
          <mxGeometry relative="1" as="geometry">
            <mxPoint x="99.9354838709678" y="560" as="targetPoint" />
            <mxPoint x="100" y="565" as="sourcePoint" />
          </mxGeometry>
        </mxCell>
        <mxCell id="rzB6C8EH04PqC8TSvOPb-152" value="control" style="text;html=1;strokeColor=none;fillColor=none;align=left;verticalAlign=middle;whiteSpace=wrap;rounded=0;fontSize=6;spacing=0;" parent="V_8Qq8RZZ0c48j0kGkGb-1" vertex="1">
          <mxGeometry x="90" y="565" width="20" height="10" as="geometry" />
        </mxCell>
        <mxCell id="rzB6C8EH04PqC8TSvOPb-153" style="edgeStyle=orthogonalEdgeStyle;rounded=0;orthogonalLoop=1;jettySize=auto;html=1;exitX=0.5;exitY=0;exitDx=0;exitDy=0;endArrow=none;endFill=0;strokeColor=#666666;" parent="V_8Qq8RZZ0c48j0kGkGb-1" edge="1">
          <mxGeometry relative="1" as="geometry">
            <mxPoint x="139.9354838709678" y="560" as="targetPoint" />
            <mxPoint x="140" y="565" as="sourcePoint" />
          </mxGeometry>
        </mxCell>
        <mxCell id="rzB6C8EH04PqC8TSvOPb-154" value="negative" style="text;html=1;strokeColor=none;fillColor=none;align=left;verticalAlign=middle;whiteSpace=wrap;rounded=0;fontSize=6;spacing=0;" parent="V_8Qq8RZZ0c48j0kGkGb-1" vertex="1">
          <mxGeometry x="130" y="565" width="20" height="10" as="geometry" />
        </mxCell>
        <mxCell id="rzB6C8EH04PqC8TSvOPb-155" style="edgeStyle=orthogonalEdgeStyle;rounded=0;orthogonalLoop=1;jettySize=auto;html=1;exitX=0.5;exitY=0;exitDx=0;exitDy=0;dashed=1;dashPattern=1 4;endArrow=none;endFill=0;" parent="V_8Qq8RZZ0c48j0kGkGb-1" edge="1">
          <mxGeometry relative="1" as="geometry">
            <mxPoint x="199.9354838709678" y="560" as="targetPoint" />
            <mxPoint x="200" y="565" as="sourcePoint" />
          </mxGeometry>
        </mxCell>
        <mxCell id="rzB6C8EH04PqC8TSvOPb-156" style="edgeStyle=orthogonalEdgeStyle;rounded=0;orthogonalLoop=1;jettySize=auto;html=1;exitX=0.5;exitY=0;exitDx=0;exitDy=0;endArrow=none;endFill=0;strokeColor=#666666;" parent="V_8Qq8RZZ0c48j0kGkGb-1" edge="1">
          <mxGeometry relative="1" as="geometry">
            <mxPoint x="200" y="560" as="targetPoint" />
            <mxPoint x="200" y="565" as="sourcePoint" />
          </mxGeometry>
        </mxCell>
        <mxCell id="rzB6C8EH04PqC8TSvOPb-157" value="positive" style="text;html=1;strokeColor=none;fillColor=none;align=left;verticalAlign=middle;whiteSpace=wrap;rounded=0;fontSize=6;spacing=0;" parent="V_8Qq8RZZ0c48j0kGkGb-1" vertex="1">
          <mxGeometry x="190" y="565" width="20" height="10" as="geometry" />
        </mxCell>
        <mxCell id="rzB6C8EH04PqC8TSvOPb-158" value="" style="endArrow=none;html=1;rounded=0;fillColor=#f5f5f5;strokeColor=#666666;entryX=1;entryY=0.5;entryDx=0;entryDy=0;" parent="V_8Qq8RZZ0c48j0kGkGb-1" edge="1">
          <mxGeometry width="50" height="50" relative="1" as="geometry">
            <mxPoint x="300" y="560" as="sourcePoint" />
            <mxPoint x="180" y="560" as="targetPoint" />
          </mxGeometry>
        </mxCell>
        <mxCell id="rzB6C8EH04PqC8TSvOPb-159" style="edgeStyle=orthogonalEdgeStyle;rounded=0;orthogonalLoop=1;jettySize=auto;html=1;exitX=0.5;exitY=0;exitDx=0;exitDy=0;endArrow=none;endFill=0;strokeColor=#666666;" parent="V_8Qq8RZZ0c48j0kGkGb-1" edge="1">
          <mxGeometry relative="1" as="geometry">
            <mxPoint x="239.9354838709678" y="560" as="targetPoint" />
            <mxPoint x="240" y="565" as="sourcePoint" />
          </mxGeometry>
        </mxCell>
        <mxCell id="rzB6C8EH04PqC8TSvOPb-160" value="control" style="text;html=1;strokeColor=none;fillColor=none;align=left;verticalAlign=middle;whiteSpace=wrap;rounded=0;fontSize=6;spacing=0;" parent="V_8Qq8RZZ0c48j0kGkGb-1" vertex="1">
          <mxGeometry x="230" y="565" width="20" height="10" as="geometry" />
        </mxCell>
        <mxCell id="rzB6C8EH04PqC8TSvOPb-161" style="edgeStyle=orthogonalEdgeStyle;rounded=0;orthogonalLoop=1;jettySize=auto;html=1;exitX=0.5;exitY=0;exitDx=0;exitDy=0;endArrow=none;endFill=0;strokeColor=#666666;" parent="V_8Qq8RZZ0c48j0kGkGb-1" edge="1">
          <mxGeometry relative="1" as="geometry">
            <mxPoint x="279.9354838709678" y="560" as="targetPoint" />
            <mxPoint x="280" y="565" as="sourcePoint" />
          </mxGeometry>
        </mxCell>
        <mxCell id="rzB6C8EH04PqC8TSvOPb-162" value="negative" style="text;html=1;strokeColor=none;fillColor=none;align=left;verticalAlign=middle;whiteSpace=wrap;rounded=0;fontSize=6;spacing=0;" parent="V_8Qq8RZZ0c48j0kGkGb-1" vertex="1">
          <mxGeometry x="270" y="565" width="20" height="10" as="geometry" />
        </mxCell>
        <mxCell id="rzB6C8EH04PqC8TSvOPb-163" value="Opportunity ratings variant &lt;br&gt;across conditions" style="text;html=1;strokeColor=#666666;fillColor=#f5f5f5;align=center;verticalAlign=middle;whiteSpace=wrap;rounded=0;fontSize=6;fontColor=#333333;" parent="V_8Qq8RZZ0c48j0kGkGb-1" vertex="1">
          <mxGeometry x="180" y="370" width="120" height="20" as="geometry" />
        </mxCell>
        <mxCell id="rzB6C8EH04PqC8TSvOPb-164" value="&lt;span style=&quot;color: rgb(51, 51, 51); font-size: 8px;&quot;&gt;C. &lt;span style=&quot;font-weight: normal;&quot;&gt;Perceived opportunity to adjust responses (&lt;i&gt;o&lt;/i&gt;)&lt;/span&gt;&lt;/span&gt;" style="text;html=1;strokeColor=none;fillColor=none;align=left;verticalAlign=middle;whiteSpace=wrap;rounded=0;fontSize=8;fontStyle=1" parent="V_8Qq8RZZ0c48j0kGkGb-1" vertex="1">
          <mxGeometry x="10" y="340" width="290" height="30" as="geometry" />
        </mxCell>
        <mxCell id="59u_fFwzDtZySMnRDFxi-0" value="demand condition" style="text;html=1;align=center;verticalAlign=middle;whiteSpace=wrap;rounded=0;labelBorderColor=none;fontSize=6;rotation=0;fillColor=none;strokeColor=none;fontStyle=1" parent="V_8Qq8RZZ0c48j0kGkGb-1" vertex="1">
          <mxGeometry x="40" y="317" width="260" height="15" as="geometry" />
        </mxCell>
        <mxCell id="59u_fFwzDtZySMnRDFxi-1" value="demand condition" style="text;html=1;align=center;verticalAlign=middle;whiteSpace=wrap;rounded=0;labelBorderColor=none;fontSize=6;rotation=0;fillColor=none;strokeColor=none;fontStyle=1" parent="V_8Qq8RZZ0c48j0kGkGb-1" vertex="1">
          <mxGeometry x="350" y="317" width="260" height="15" as="geometry" />
        </mxCell>
        <mxCell id="59u_fFwzDtZySMnRDFxi-2" value="demand condition" style="text;html=1;align=center;verticalAlign=middle;whiteSpace=wrap;rounded=0;labelBorderColor=none;fontSize=6;rotation=0;fillColor=none;strokeColor=none;fontStyle=1" parent="V_8Qq8RZZ0c48j0kGkGb-1" vertex="1">
          <mxGeometry x="40" y="575" width="260" height="15" as="geometry" />
        </mxCell>
      </root>
    </mxGraphModel>
  </diagram>
</mxfile>
